<svg width="74" height="27" viewBox="0 0 74 27" fill="none" xmlns="http://www.w3.org/2000/svg">
<path fill-rule="evenodd" clip-rule="evenodd" d="M1.4314 12.9999L1.4314 6.31074C1.4314 6.31074 5.44118 9.36189 6.13152 9.2704C9.85688 8.77665 14.2983 5.73455 16.3804 5.73455C18.4626 5.73455 25.1931 8.26609 28.1525 8.26609C31.1118 8.26609 36.7694 1.1199 39.0324 1.1199C41.2954 1.1199 45.5916 6.31074 47.6836 6.31074C49.7757 6.31074 56.2662 4.26127 58.3551 4.26127C60.4441 4.26127 65.8405 5.73455 67.9295 5.73455C68.6802 5.73455 73.5 4.75618 73.5 4.75618V12.9999H1.4314Z" fill="url(#paint0_linear_20_1216)"/>
<path d="M1.4314 6.19687C1.4314 6.19687 4.65219 9.15997 6.47968 9.15997C8.30717 9.15997 14.2983 5.62002 16.3804 5.62002C18.4626 5.62002 25.1931 8.1545 28.1525 8.1545C31.1118 8.1545 36.7694 1 39.0324 1C41.2954 1 45.5916 6.19687 47.6836 6.19687C49.7756 6.19687 56.2662 4.14502 58.3551 4.14502C60.4441 4.14502 65.8405 5.62002 67.9295 5.62002C70.0184 5.62002 73.5 4.6405 73.5 4.6405" stroke="#16A853" stroke-width="1.5"/>
<path d="M1.8514 20.08C1.8914 19.5267 2.06806 19.0467 2.3814 18.64C2.7014 18.2333 3.12473 17.92 3.6514 17.7C4.17806 17.4733 4.77806 17.36 5.4514 17.36C6.0914 17.36 6.6514 17.46 7.1314 17.66C7.61806 17.86 7.99473 18.14 8.2614 18.5C8.53473 18.86 8.6714 19.2767 8.6714 19.75C8.6714 20.1167 8.5814 20.4567 8.4014 20.77C8.22806 21.0833 7.93806 21.4033 7.5314 21.73C7.1314 22.05 6.58806 22.4133 5.9014 22.82L3.4114 24.29L3.2414 23.9H8.9014V25H1.9214V24.04L5.1114 22.1C5.6714 21.76 6.1114 21.4667 6.4314 21.22C6.75806 20.9667 6.9914 20.73 7.1314 20.51C7.2714 20.29 7.3414 20.0567 7.3414 19.81C7.3414 19.55 7.2714 19.3167 7.1314 19.11C6.9914 18.9033 6.77806 18.74 6.4914 18.62C6.2114 18.5 5.8514 18.44 5.4114 18.44C4.9114 18.44 4.5014 18.5133 4.1814 18.66C3.8614 18.8067 3.6214 19.0067 3.4614 19.26C3.30806 19.5067 3.21473 19.78 3.1814 20.08H1.8514ZM15.702 17.5V25H14.382V18.05H14.922L10.622 22.83L10.592 22.36H17.072V23.42H9.55202V22.47L14.022 17.5H15.702ZM18.6394 25.08C18.486 25.08 18.346 25.0433 18.2194 24.97C18.0994 24.8967 18.0027 24.8 17.9294 24.68C17.856 24.5533 17.8194 24.4133 17.8194 24.26C17.8194 24.1067 17.856 23.97 17.9294 23.85C18.0027 23.7233 18.0994 23.6233 18.2194 23.55C18.346 23.4767 18.486 23.44 18.6394 23.44C18.7927 23.44 18.9294 23.4767 19.0494 23.55C19.176 23.6233 19.276 23.7233 19.3494 23.85C19.4227 23.97 19.4594 24.1067 19.4594 24.26C19.4594 24.4133 19.4227 24.5533 19.3494 24.68C19.276 24.8 19.176 24.8967 19.0494 24.97C18.9294 25.0433 18.7927 25.08 18.6394 25.08ZM24.1975 17.36C25.3108 17.36 26.1708 17.54 26.7775 17.9C27.3842 18.26 27.6875 18.7633 27.6875 19.41C27.6875 20.0033 27.4108 20.46 26.8575 20.78C26.3042 21.1 25.5308 21.25 24.5375 21.23V21.02C25.6308 20.96 26.4775 21.0967 27.0775 21.43C27.6775 21.7633 27.9775 22.2667 27.9775 22.94C27.9775 23.64 27.6508 24.1833 26.9975 24.57C26.3442 24.95 25.4108 25.14 24.1975 25.14C22.9908 25.14 22.0575 24.95 21.3975 24.57C20.7442 24.1833 20.4175 23.64 20.4175 22.94C20.4175 22.2667 20.7175 21.7633 21.3175 21.43C21.9242 21.09 22.7708 20.9533 23.8575 21.02V21.23C22.8708 21.25 22.0975 21.1 21.5375 20.78C20.9842 20.46 20.7075 20.0033 20.7075 19.41C20.7075 18.7633 21.0108 18.26 21.6175 17.9C22.2242 17.54 23.0842 17.36 24.1975 17.36ZM24.1975 24.08C24.9908 24.08 25.5975 23.98 26.0175 23.78C26.4375 23.5733 26.6475 23.27 26.6475 22.87C26.6475 22.4567 26.4375 22.1533 26.0175 21.96C25.5975 21.7667 24.9908 21.67 24.1975 21.67C23.4042 21.67 22.7975 21.7667 22.3775 21.96C21.9575 22.1533 21.7475 22.4567 21.7475 22.87C21.7475 23.27 21.9575 23.5733 22.3775 23.78C22.7975 23.98 23.4042 24.08 24.1975 24.08ZM24.1975 20.63C24.6575 20.63 25.0475 20.59 25.3675 20.51C25.6942 20.43 25.9408 20.3067 26.1075 20.14C26.2808 19.9733 26.3675 19.7667 26.3675 19.52C26.3675 19.1667 26.1775 18.8967 25.7975 18.71C25.4242 18.5167 24.8908 18.42 24.1975 18.42C23.5108 18.42 22.9775 18.5167 22.5975 18.71C22.2175 18.8967 22.0275 19.1667 22.0275 19.52C22.0275 19.7667 22.1108 19.9733 22.2775 20.14C22.4508 20.3067 22.6975 20.43 23.0175 20.51C23.3442 20.59 23.7375 20.63 24.1975 20.63ZM32.2926 17.5V25H30.9726V17.9L31.6926 18.54L28.5526 19.09V18.04L31.3026 17.5H32.2926ZM33.5897 20.08C33.6297 19.5267 33.8063 19.0467 34.1197 18.64C34.4397 18.2333 34.863 17.92 35.3897 17.7C35.9163 17.4733 36.5163 17.36 37.1897 17.36C37.8297 17.36 38.3897 17.46 38.8697 17.66C39.3563 17.86 39.733 18.14 39.9997 18.5C40.273 18.86 40.4097 19.2767 40.4097 19.75C40.4097 20.1167 40.3197 20.4567 40.1397 20.77C39.9663 21.0833 39.6763 21.4033 39.2697 21.73C38.8697 22.05 38.3263 22.4133 37.6397 22.82L35.1497 24.29L34.9797 23.9H40.6397V25H33.6597V24.04L36.8497 22.1C37.4097 21.76 37.8497 21.4667 38.1697 21.22C38.4963 20.9667 38.7297 20.73 38.8697 20.51C39.0097 20.29 39.0797 20.0567 39.0797 19.81C39.0797 19.55 39.0097 19.3167 38.8697 19.11C38.7297 18.9033 38.5163 18.74 38.2297 18.62C37.9497 18.5 37.5897 18.44 37.1497 18.44C36.6497 18.44 36.2397 18.5133 35.9197 18.66C35.5997 18.8067 35.3597 19.0067 35.1997 19.26C35.0463 19.5067 34.953 19.78 34.9197 20.08H33.5897ZM43.7703 21.81C43.2903 21.81 42.867 21.72 42.5003 21.54C42.1336 21.3533 41.847 21.0933 41.6403 20.76C41.4336 20.4267 41.3303 20.0433 41.3303 19.61C41.3303 19.1767 41.4336 18.7967 41.6403 18.47C41.847 18.1367 42.1336 17.88 42.5003 17.7C42.867 17.5133 43.2903 17.42 43.7703 17.42C44.257 17.42 44.6803 17.5133 45.0403 17.7C45.407 17.88 45.6936 18.1367 45.9003 18.47C46.107 18.7967 46.2103 19.1767 46.2103 19.61C46.2103 20.0433 46.107 20.4267 45.9003 20.76C45.6936 21.0933 45.407 21.3533 45.0403 21.54C44.6803 21.72 44.257 21.81 43.7703 21.81ZM43.7703 20.98C44.197 20.98 44.5336 20.86 44.7803 20.62C45.027 20.3733 45.1503 20.0367 45.1503 19.61C45.1503 19.19 45.027 18.8567 44.7803 18.61C44.5336 18.3633 44.197 18.24 43.7703 18.24C43.3436 18.24 43.007 18.3633 42.7603 18.61C42.5136 18.8567 42.3903 19.19 42.3903 19.61C42.3903 20.0367 42.5136 20.3733 42.7603 20.62C43.007 20.86 43.3436 20.98 43.7703 20.98ZM50.4803 25.12C50.0003 25.12 49.577 25.03 49.2103 24.85C48.8436 24.6633 48.557 24.4033 48.3503 24.07C48.1436 23.7367 48.0403 23.3533 48.0403 22.92C48.0403 22.4867 48.1436 22.1067 48.3503 21.78C48.557 21.4467 48.8436 21.19 49.2103 21.01C49.577 20.8233 50.0003 20.73 50.4803 20.73C50.967 20.73 51.3903 20.8233 51.7503 21.01C52.117 21.19 52.4036 21.4467 52.6103 21.78C52.817 22.1067 52.9203 22.4867 52.9203 22.92C52.9203 23.3533 52.817 23.7367 52.6103 24.07C52.4036 24.4033 52.117 24.6633 51.7503 24.85C51.3903 25.03 50.967 25.12 50.4803 25.12ZM50.4803 24.29C50.907 24.29 51.2436 24.17 51.4903 23.93C51.737 23.6833 51.8603 23.3467 51.8603 22.92C51.8603 22.5 51.737 22.1667 51.4903 21.92C51.2436 21.6733 50.907 21.55 50.4803 21.55C50.0536 21.55 49.717 21.6733 49.4703 21.92C49.2236 22.1667 49.1003 22.5 49.1003 22.92C49.1003 23.3467 49.2236 23.6833 49.4703 23.93C49.717 24.17 50.0536 24.29 50.4803 24.29ZM48.6503 17.5H49.6803L45.6103 25H44.5903L48.6503 17.5Z" fill="#16A853"/>
<defs>
<linearGradient id="paint0_linear_20_1216" x1="2.15685" y1="-4.67898" x2="2.15685" y2="14.7364" gradientUnits="userSpaceOnUse">
<stop stop-color="#16A853"/>
<stop offset="1" stop-color="white" stop-opacity="0.01"/>
</linearGradient>
</defs>
</svg>
