<svg width="24" height="24" viewBox="0 0 24 24" fill="none" xmlns="http://www.w3.org/2000/svg">
<rect x="0.5" y="0.500061" width="23" height="23" rx="3.5" fill="#FDFDFC"/>
<rect x="0.5" y="0.500061" width="23" height="23" rx="3.5" stroke="#F4F3F2"/>
<g clip-path="url(#clip0_658_877)">
<path d="M12 16.0001H16.5" stroke="#E59572" stroke-width="1.2" stroke-linecap="round" stroke-linejoin="round"/>
<path d="M14.188 7.81105C14.387 7.61201 14.657 7.50018 14.9385 7.50018C15.22 7.50018 15.4899 7.61201 15.689 7.81105C15.888 8.0101 15.9999 8.28006 15.9999 8.56155C15.9999 8.84304 15.888 9.11301 15.689 9.31205L9.68399 15.3176C9.56504 15.4365 9.418 15.5235 9.25649 15.5706L7.82049 15.9896C7.77746 16.0021 7.73186 16.0029 7.68844 15.9917C7.64503 15.9806 7.6054 15.958 7.57371 15.9263C7.54202 15.8946 7.51943 15.855 7.50831 15.8116C7.49719 15.7682 7.49794 15.7226 7.51049 15.6796L7.92949 14.2436C7.9766 14.0822 8.06361 13.9354 8.18249 13.8166L14.188 7.81105Z" stroke="#E59572" stroke-width="1.2" stroke-linecap="round" stroke-linejoin="round"/>
<path d="M13.5 8.50006L15 10.0001" stroke="#E59572" stroke-width="1.2" stroke-linecap="round" stroke-linejoin="round"/>
</g>
<defs>
<clipPath id="clip0_658_877">
<rect width="12" height="12" fill="white" transform="translate(6 6.00006)"/>
</clipPath>
</defs>
</svg>
