<svg width="14" height="14" viewBox="0 0 14 14" fill="none" xmlns="http://www.w3.org/2000/svg">
<g clip-path="url(#clip0_45_133)">
<mask id="mask0_45_133" style="mask-type:luminance" maskUnits="userSpaceOnUse" x="0" y="0" width="14" height="14">
<path d="M14 0H0V14H14V0Z" fill="white"/>
</mask>
<g mask="url(#mask0_45_133)">
<path d="M7.01762 6.97501e-05C3.17916 0.0176311 0.0817498 3.16552 0.0987021 7.03147C0.116138 10.8974 3.24211 14.017 7.08008 13.9999C10.9185 13.9824 14.016 10.8345 13.999 6.96903C13.9816 3.10259 10.8561 -0.0170039 7.01762 6.97501e-05ZM6.13755 6.65683C5.45122 6.65683 4.89471 6.09681 4.89471 5.40557C4.89471 4.71434 5.45122 4.15432 6.13755 4.15432C6.82387 4.15432 7.37991 4.71482 7.37991 5.40557C7.37991 6.09631 6.82338 6.65683 6.13755 6.65683ZM7.12853 8.00953L7.13483 8.00173L7.14159 7.99393C7.49614 8.22418 7.90106 8.30564 8.30549 8.31736C8.71041 8.32807 9.12307 8.29735 9.52896 8.21491C9.93435 8.13003 10.333 8.00466 10.718 7.84465C10.934 7.75489 11.1491 7.65685 11.354 7.54173C11.3554 7.54075 11.3564 7.54025 11.3579 7.53928C11.4852 7.4622 11.6097 7.38074 11.7318 7.29684C11.7584 7.27781 11.7841 7.2578 11.8093 7.23733L11.8122 7.24074L11.8228 7.25341C11.5104 7.53977 11.1384 7.75246 10.7597 7.94026C10.3771 8.12173 9.97795 8.27051 9.56577 8.37783C9.15504 8.48467 8.72639 8.56565 8.29241 8.52565C7.86522 8.4876 7.41526 8.33687 7.12756 8.01003L7.12853 8.00953ZM10.3175 6.65683C10.317 6.50657 10.4371 6.38559 10.5853 6.38413C10.7345 6.38365 10.8546 6.50414 10.8561 6.65389C10.8566 6.80365 10.7364 6.92609 10.5882 6.92659C10.4395 6.92707 10.3189 6.8061 10.3175 6.65683ZM8.18876 13.3706C7.92043 11.4765 9.56286 9.62128 10.4889 8.67199C10.6991 8.45686 11.0241 8.16028 11.3264 7.84515C12.5285 6.71293 12.7678 5.36021 10.3073 4.68409C9.84088 4.54799 9.3575 4.3553 8.86782 4.16065C8.85232 4.1153 8.83488 4.07237 8.81453 4.03188C8.75836 3.93432 8.66004 3.82212 8.51133 3.69479C8.19167 3.41527 7.5906 3.42259 7.07186 3.54651C6.4984 3.4104 5.93266 3.3621 5.38875 3.49332C3.00914 4.15383 2.62652 5.32264 2.534 6.73097C2.40808 8.25296 2.33446 9.38713 1.76244 10.6828C1.04851 9.64568 0.627612 8.38759 0.6218 7.03C0.605817 3.45527 3.47024 0.544473 7.01955 0.528376C10.5688 0.512277 13.4589 3.39723 13.4749 6.97196C13.4895 10.1647 11.2053 12.8287 8.18828 13.3716L8.18876 13.3706Z" fill="#FFF3E2"/>
<path d="M7.01132 5.41682C7.01132 5.90317 6.61996 6.29684 6.13756 6.29684C5.65515 6.29684 5.26331 5.90317 5.26331 5.41682C5.26331 4.93047 5.65466 4.5368 6.13756 4.5368C6.62045 4.5368 7.01132 4.93047 7.01132 5.41682Z" fill="#FFF3E2"/>
</g>
</g>
<defs>
<clipPath id="clip0_45_133">
<rect width="14" height="14" fill="white"/>
</clipPath>
</defs>
</svg>
