<svg width="20" height="20" viewBox="0 0 20 20" fill="none" xmlns="http://www.w3.org/2000/svg">
<g clip-path="url(#clip0_35_677)">
<mask id="mask0_35_677" style="mask-type:luminance" maskUnits="userSpaceOnUse" x="0" y="0" width="20" height="20">
<path d="M20 0H0V20H20V0Z" fill="white"/>
</mask>
<g mask="url(#mask0_35_677)">
<path d="M10.0249 9.9643e-05C4.54137 0.0251873 0.116506 4.52217 0.140724 10.045C0.165633 15.5677 4.63131 20.0243 10.1141 19.9999C15.5976 19.9748 20.0225 15.4778 19.9983 9.95575C19.9734 4.43227 15.5084 -0.0242913 10.0249 9.9643e-05ZM8.76764 9.50975C7.78718 9.50975 6.99216 8.70973 6.99216 7.72225C6.99216 6.73477 7.78718 5.93475 8.76764 5.93475C9.7481 5.93475 10.5425 6.73546 10.5425 7.72225C10.5425 8.70902 9.74741 9.50975 8.76764 9.50975ZM10.1833 11.4422L10.1923 11.431L10.202 11.4199C10.7085 11.7488 11.287 11.8652 11.8647 11.8819C12.4432 11.8973 13.0327 11.8534 13.6125 11.7356C14.1916 11.6143 14.7611 11.4352 15.3112 11.2066C15.6198 11.0784 15.927 10.9384 16.2197 10.7739C16.2217 10.7725 16.2231 10.7718 16.2252 10.7704C16.4072 10.6603 16.585 10.5439 16.7594 10.4241C16.7974 10.3969 16.8341 10.3683 16.8701 10.339L16.8742 10.3439L16.8895 10.362C16.4432 10.7711 15.9118 11.0749 15.3707 11.3432C14.8241 11.6025 14.2539 11.815 13.6651 11.9683C13.0784 12.121 12.466 12.2366 11.846 12.1795C11.2357 12.1251 10.593 11.9098 10.182 11.4429L10.1833 11.4422ZM14.739 9.50975C14.7383 9.2951 14.9099 9.12227 15.1216 9.12019C15.3347 9.1195 15.5063 9.29163 15.5084 9.50556C15.5091 9.7195 15.3375 9.89442 15.1258 9.89513C14.9133 9.89581 14.741 9.723 14.739 9.50975ZM11.698 19.1009C11.3146 16.3949 13.661 13.7447 14.9839 12.3886C15.2842 12.0812 15.7485 11.6575 16.1802 11.2074C17.8976 9.5899 18.2394 7.65744 14.7244 6.69156C14.0581 6.49713 13.3676 6.22185 12.668 5.94379C12.6459 5.879 12.621 5.81767 12.5919 5.75983C12.5117 5.62046 12.3712 5.46017 12.1588 5.27827C11.7021 4.87896 10.8434 4.88942 10.1024 5.06644C9.28314 4.872 8.47495 4.803 7.69793 4.99046C4.2985 5.93404 3.75189 7.60377 3.61973 9.61567C3.43983 11.7899 3.33466 13.4102 2.5175 15.2611C1.4976 13.7795 0.896309 11.9823 0.888007 10.0429C0.865174 4.9361 4.95721 0.777819 10.0276 0.754823C15.0981 0.731825 19.2268 4.85319 19.2496 9.95994C19.2704 14.521 16.0073 18.3267 11.6973 19.1023L11.698 19.1009Z" fill="#7A6966"/>
<path d="M10.0167 7.73861C10.0167 8.4334 9.45761 8.99578 8.76847 8.99578C8.0793 8.99578 7.51953 8.4334 7.51953 7.73861C7.51953 7.04382 8.07861 6.48145 8.76847 6.48145C9.4583 6.48145 10.0167 7.04382 10.0167 7.73861Z" fill="#7A6966"/>
</g>
</g>
<defs>
<clipPath id="clip0_35_677">
<rect width="20" height="20" fill="white"/>
</clipPath>
</defs>
</svg>
