<svg width="20" height="20" viewBox="0 0 20 20" fill="none" xmlns="http://www.w3.org/2000/svg">
<path d="M2.88906 1.01562C1.51417 1.01562 0.615234 1.91845 0.615234 3.10509C0.615234 4.26552 1.48739 5.19409 2.8363 5.19409H2.8624C4.26418 5.19409 5.13657 4.26552 5.13657 3.10509C5.11036 1.91845 4.26418 1.01562 2.88906 1.01562Z" fill="#7A6966"/>
<path d="M0.852539 6.84521H4.87193V18.9377H0.852539V6.84521Z" fill="#7A6966"/>
<path d="M14.7375 6.56152C12.5692 6.56152 11.1152 8.59903 11.1152 8.59903V6.84534H7.0957V18.9379H11.115V12.1849C11.115 11.8234 11.1412 11.4625 11.2474 11.2039C11.538 10.482 12.1992 9.73417 13.3096 9.73417C14.764 9.73417 15.3457 10.8431 15.3457 12.4687V18.9379H19.3648V12.0042C19.3648 8.28992 17.3818 6.56152 14.7375 6.56152Z" fill="#7A6966"/>
</svg>
