<svg width="14" height="14" viewBox="0 0 14 14" fill="none" xmlns="http://www.w3.org/2000/svg">
<g clip-path="url(#clip0_45_127)">
<path d="M2.02234 0.710938C1.05992 0.710938 0.430664 1.34291 0.430664 2.17356C0.430664 2.98586 1.04117 3.63586 1.98541 3.63586H2.00368C2.98493 3.63586 3.5956 2.98586 3.5956 2.17356C3.57725 1.34291 2.98493 0.710938 2.02234 0.710938Z" fill="#FFF3E2"/>
<path d="M0.596924 4.79156H3.4105V13.2563H0.596924V4.79156Z" fill="#FFF3E2"/>
<path d="M10.3165 4.5929C8.79872 4.5929 7.78094 6.01915 7.78094 6.01915V4.79156H4.96729V13.2563H7.78078V8.52927C7.78078 8.27621 7.79913 8.02355 7.87347 7.84258C8.07686 7.33726 8.53973 6.81375 9.31702 6.81375C10.3351 6.81375 10.7423 7.59 10.7423 8.72794V13.2563H13.5557V8.40278C13.5557 5.80278 12.1675 4.5929 10.3165 4.5929Z" fill="#FFF3E2"/>
</g>
<defs>
<clipPath id="clip0_45_127">
<rect width="14" height="14" fill="white"/>
</clipPath>
</defs>
</svg>
