<svg width="95" height="17" viewBox="0 0 95 17" fill="none" xmlns="http://www.w3.org/2000/svg">
<path fill-rule="evenodd" clip-rule="evenodd" d="M1 16.4851L1 7.85318C1 7.85318 6.17437 11.7905 7.06522 11.6724C11.8726 11.0353 17.6039 7.10964 20.2908 7.10964C22.9776 7.10964 31.663 10.3764 35.4819 10.3764C39.3007 10.3764 46.6015 1.15472 49.5217 1.15472C52.442 1.15472 57.986 7.85318 60.6856 7.85318C63.3852 7.85318 71.7609 5.20845 74.4565 5.20845C77.1522 5.20845 84.1159 7.10964 86.8116 7.10964C87.7803 7.10964 94 5.84711 94 5.84711V16.4851H1Z" fill="url(#paint0_linear_755_958)"/>
<path d="M1 7.70624C1 7.70624 5.15624 11.5299 7.51449 11.5299C9.87275 11.5299 17.6039 6.96184 20.2908 6.96184C22.9776 6.96184 31.663 10.2324 35.4819 10.2324C39.3007 10.2324 46.6015 1 49.5217 1C52.442 1 57.986 7.70624 60.6856 7.70624C63.3852 7.70624 71.7609 5.05844 74.4565 5.05844C77.1522 5.05844 84.1159 6.96184 86.8116 6.96184C89.5072 6.96184 94 5.69784 94 5.69784" stroke="#16A853" stroke-width="1.5"/>
<defs>
<linearGradient id="paint0_linear_755_958" x1="1.93615" y1="-6.32837" x2="1.93615" y2="18.7259" gradientUnits="userSpaceOnUse">
<stop stop-color="#16A853"/>
<stop offset="1" stop-color="white" stop-opacity="0.01"/>
</linearGradient>
</defs>
</svg>
