<svg width="20" height="20" viewBox="0 0 20 20" fill="none" xmlns="http://www.w3.org/2000/svg">
<g clip-path="url(#clip0_35_675)">
<path d="M17.2816 11.9508C16.9325 12.1717 16.5216 12.1992 16.21 12.0233C15.8133 11.7983 15.595 11.275 15.595 10.545V8.36333C15.595 7.31 15.1783 6.56 14.4816 6.3575C13.3016 6.01333 12.4133 7.4575 12.08 8.00083L9.99829 11.3758V7.25083C9.97496 6.30083 9.66663 5.73333 9.08163 5.56167C8.69329 5.44917 8.11413 5.49417 7.55079 6.35583L2.88663 13.845C2.26224 12.6596 1.9367 11.3398 1.93829 10C1.93829 5.48833 5.55413 1.81833 9.99829 1.81833C14.4416 1.81833 18.0566 5.48833 18.0566 10C18.06 10.015 18.0583 10.0283 18.0591 10.0442C18.1008 10.9183 17.8175 11.6133 17.2816 11.9525V11.9508ZM19.8483 10.0008L19.8475 9.955C19.8225 4.46083 15.4141 0 9.99746 0C4.56663 0 0.147461 4.48583 0.147461 10C0.147461 15.5133 4.56663 20 9.99746 20C12.49 20 14.8691 19.0525 16.695 17.3333C17.0575 16.9917 17.0783 16.4167 16.7425 16.0492C16.6632 15.9617 16.5674 15.891 16.4605 15.8411C16.3535 15.7912 16.2378 15.7632 16.1199 15.7586C16.002 15.754 15.8844 15.773 15.7739 15.8145C15.6635 15.8559 15.5624 15.919 15.4766 16C13.9968 17.4012 12.0362 18.1819 9.99829 18.1817C7.61829 18.1817 5.47746 17.1292 4.00079 15.4583L8.20746 8.70417V11.8183C8.20746 13.3133 8.78746 13.7967 9.27413 13.9383C9.76079 14.08 10.5041 13.9833 11.285 12.715C12.1166 11.37 12.9725 9.9675 13.8041 8.64833V10.545C13.8041 11.9433 14.3641 13.0617 15.34 13.6117C16.22 14.1092 17.3266 14.0642 18.2275 13.495C19.3208 12.805 19.9091 11.5333 19.8475 10.0008H19.8483Z" fill="#7A6966"/>
</g>
<defs>
<clipPath id="clip0_35_675">
<rect width="20" height="20" fill="white"/>
</clipPath>
</defs>
</svg>
