<svg width="14" height="14" viewBox="0 0 14 14" fill="none" xmlns="http://www.w3.org/2000/svg">
<g clip-path="url(#clip0_45_131)">
<path d="M12.0972 8.36558C11.8528 8.52017 11.5652 8.53942 11.347 8.41633C11.0694 8.25883 10.9165 7.8925 10.9165 7.3815V5.85433C10.9165 5.117 10.6249 4.592 10.1372 4.45025C9.31119 4.20933 8.68935 5.22025 8.45602 5.60058L6.99885 7.96308V5.07558C6.98252 4.41058 6.76669 4.01333 6.35719 3.89317C6.08535 3.81442 5.67994 3.84592 5.2856 4.44908L2.02069 9.6915C1.58361 8.86175 1.35574 7.93783 1.35685 7C1.35685 3.84183 3.88794 1.27283 6.99885 1.27283C10.1092 1.27283 12.6397 3.84183 12.6397 7C12.642 7.0105 12.6409 7.01983 12.6414 7.03092C12.6706 7.64283 12.4723 8.12933 12.0972 8.36675V8.36558ZM13.8939 7.00058L13.8933 6.9685C13.8758 3.12258 10.7899 0 6.99827 0C3.19669 0 0.103271 3.14008 0.103271 7C0.103271 10.8593 3.19669 14 6.99827 14C8.74302 14 10.4084 13.3367 11.6865 12.1333C11.9403 11.8942 11.9549 11.4917 11.7198 11.2344C11.6643 11.1732 11.5972 11.1237 11.5224 11.0888C11.4475 11.0539 11.3665 11.0342 11.284 11.031C11.2014 11.0278 11.1191 11.0411 11.0418 11.0701C10.9645 11.0991 10.8937 11.1433 10.8337 11.2C9.79779 12.1808 8.42541 12.7273 6.99885 12.7272C5.33285 12.7272 3.83427 11.9904 2.8006 10.8208L5.74527 6.09292V8.27283C5.74527 9.31933 6.15127 9.65767 6.49194 9.75683C6.8326 9.856 7.35294 9.78833 7.89952 8.9005C8.48169 7.959 9.08077 6.97725 9.66294 6.05383V7.3815C9.66294 8.36033 10.0549 9.14317 10.738 9.52817C11.354 9.87642 12.1287 9.84492 12.7593 9.4465C13.5246 8.9635 13.9364 8.07333 13.8933 7.00058H13.8939Z" fill="#FFF3E2"/>
</g>
<defs>
<clipPath id="clip0_45_131">
<rect width="14" height="14" fill="white"/>
</clipPath>
</defs>
</svg>
