<svg width="26" height="24" viewBox="0 0 26 24" fill="none" xmlns="http://www.w3.org/2000/svg">
<g clip-path="url(#clip0_313_867)">
<path d="M24.5361 0.0253906L14.4706 7.51195L16.3323 3.09484L24.5361 0.0253906Z" fill="#E2761B" stroke="#E2761B" stroke-linecap="round" stroke-linejoin="round"/>
<path d="M1.2998 0.0253906L11.2844 7.5828L9.51379 3.09484L1.2998 0.0253906Z" fill="#E4761B" stroke="#E4761B" stroke-linecap="round" stroke-linejoin="round"/>
<path d="M20.9144 17.3794L18.2338 21.4927L23.9697 23.0728L25.6187 17.4706L20.9144 17.3794Z" fill="#E4761B" stroke="#E4761B" stroke-linecap="round" stroke-linejoin="round"/>
<path d="M0.237671 17.4706L1.8765 23.0728L7.6124 21.4927L4.93174 17.3794L0.237671 17.4706Z" fill="#E4761B" stroke="#E4761B" stroke-linecap="round" stroke-linejoin="round"/>
<path d="M7.28868 10.4296L5.69006 12.8512L11.3852 13.1046L11.1832 6.97534L7.28868 10.4296Z" fill="#E4761B" stroke="#E4761B" stroke-linecap="round" stroke-linejoin="round"/>
<path d="M18.5473 10.4297L14.6024 6.90454L14.4706 13.1046L20.1561 12.8513L18.5473 10.4297Z" fill="#E4761B" stroke="#E4761B" stroke-linecap="round" stroke-linejoin="round"/>
<path d="M7.61243 21.4928L11.0316 19.821L8.07761 17.511L7.61243 21.4928Z" fill="#E4761B" stroke="#E4761B" stroke-linecap="round" stroke-linejoin="round"/>
<path d="M14.8044 19.821L18.2338 21.4928L17.7584 17.511L14.8044 19.821Z" fill="#E4761B" stroke="#E4761B" stroke-linecap="round" stroke-linejoin="round"/>
<path d="M18.2338 21.4926L14.8044 19.8208L15.0778 22.0599L15.0472 23.0019L18.2338 21.4926Z" fill="#D7C1B3" stroke="#D7C1B3" stroke-linecap="round" stroke-linejoin="round"/>
<path d="M7.61243 21.4926L10.799 23.0019L10.7786 22.0599L11.0316 19.8208L7.61243 21.4926Z" fill="#D7C1B3" stroke="#D7C1B3" stroke-linecap="round" stroke-linejoin="round"/>
<path d="M10.8494 16.0324L7.9967 15.1913L10.0096 14.2693L10.8494 16.0324Z" fill="#233447"/>
<path d="M14.9866 16.0324L15.8263 14.2693L17.8494 15.1913L14.9866 16.0324Z" fill="#233447"/>
<path d="M7.61242 21.4927L8.09796 17.3794L4.93176 17.4706L7.61242 21.4927Z" fill="#CD6116" stroke="#CD6116" stroke-linecap="round" stroke-linejoin="round"/>
<path d="M17.7482 17.3794L18.2337 21.4927L20.9144 17.4706L17.7482 17.3794Z" fill="#CD6116" stroke="#CD6116" stroke-linecap="round" stroke-linejoin="round"/>
<path d="M20.1561 12.8513L14.4706 13.1046L14.9968 16.0324L15.8366 14.2693L17.8597 15.1914L20.1561 12.8513Z" fill="#CD6116"/>
<path d="M7.99664 15.1914L10.0197 14.2693L10.8493 16.0324L11.3852 13.1046L5.69006 12.8513L7.99664 15.1914Z" fill="#CD6116"/>
<path d="M5.69006 12.8513L8.07756 17.511L7.99664 15.1914L5.69006 12.8513Z" fill="#E4751F" stroke="#E4751F" stroke-linecap="round" stroke-linejoin="round"/>
<path d="M17.8597 15.1914L17.7584 17.511L20.1561 12.8513L17.8597 15.1914Z" fill="#E4751F" stroke="#E4751F" stroke-linecap="round" stroke-linejoin="round"/>
<path d="M11.3853 13.1045L10.8494 16.0322L11.5171 19.4865L11.6688 14.9379L11.3853 13.1045Z" fill="#E4751F" stroke="#E4751F" stroke-linecap="round" stroke-linejoin="round"/>
<path d="M14.4706 13.1045L14.1978 14.9277L14.3189 19.4865L14.9968 16.0322L14.4706 13.1045Z" fill="#E4751F" stroke="#E4751F" stroke-linecap="round" stroke-linejoin="round"/>
<path d="M14.9968 16.0322L14.3188 19.4865L14.8044 19.8208L17.7584 17.5108L17.8596 15.1912L14.9968 16.0322Z" fill="#F6851B"/>
<path d="M7.9967 15.1912L8.07763 17.5108L11.0316 19.8208L11.5171 19.4865L10.8494 16.0322L7.9967 15.1912Z" fill="#F6851B"/>
<path d="M15.0472 23.0019L15.0777 22.06L14.8248 21.8367H11.0112L10.7786 22.06L10.799 23.0019L7.61243 21.4927L8.725 22.404L10.9807 23.9744H14.8553L17.1212 22.404L18.2338 21.4927L15.0472 23.0019Z" fill="#C0AD9E" stroke="#C0AD9E" stroke-linecap="round" stroke-linejoin="round"/>
<path d="M14.8044 19.8209L14.3188 19.4866H11.5171L11.0315 19.8209L10.7786 22.0601L11.0112 21.8368H14.8247L15.0777 22.0601L14.8044 19.8209Z" fill="#161616" stroke="#161616" stroke-linecap="round" stroke-linejoin="round"/>
<path d="M24.9611 7.99821L25.8207 3.865L24.5361 0.0253906L14.8044 7.25862L18.5473 10.4295L23.8378 11.9795L25.0115 10.612L24.5056 10.2475L25.3148 9.50795L24.6878 9.0217L25.497 8.40342L24.9611 7.99821Z" fill="#763D16" stroke="#763D16" stroke-linecap="round" stroke-linejoin="round"/>
<path d="M0.0253906 3.865L0.885012 7.99821L0.338906 8.40342L1.14814 9.0217L0.53129 9.50795L1.34052 10.2475L0.834626 10.612L1.99809 11.9795L7.28866 10.4295L11.0315 7.25862L1.29981 0.0253906L0.0253906 3.865Z" fill="#763D16" stroke="#763D16" stroke-linecap="round" stroke-linejoin="round"/>
<path d="M23.8379 11.9797L18.5473 10.4297L20.1561 12.8513L17.7584 17.511L20.9144 17.4708H25.6187L23.8379 11.9797Z" fill="#F6851B" stroke="#F6851B" stroke-linecap="round" stroke-linejoin="round"/>
<path d="M7.2887 10.4297L1.99814 11.9797L0.237671 17.4708H4.93174L8.07758 17.511L5.69008 12.8513L7.2887 10.4297Z" fill="#F6851B" stroke="#F6851B" stroke-linecap="round" stroke-linejoin="round"/>
<path d="M14.4706 13.1046L14.8045 7.25876L16.3425 3.09497H9.51392L11.0316 7.25876L11.3853 13.1046L11.507 14.9482L11.5172 19.4866H14.3189L14.3393 14.9482L14.4706 13.1046Z" fill="#F6851B" stroke="#F6851B" stroke-linecap="round" stroke-linejoin="round"/>
</g>
<defs>
<clipPath id="clip0_313_867">
<rect width="25.8462" height="24" fill="white"/>
</clipPath>
</defs>
</svg>
