<svg width="305" height="374" viewBox="0 0 305 374" fill="none" xmlns="http://www.w3.org/2000/svg">
<g clip-path="url(#clip0_49_6916)">
<line x1="4.37114e-08" y1="81.5" x2="772" y2="81.5001" stroke="#16A853" stroke-dasharray="2 2"/>
<line x1="12.113" y1="350.8" x2="12.113" y2="-47.7998" stroke="#E7ECEE" stroke-width="0.773978"/>
<path d="M5.0179 362.056C4.61497 362.651 4.01677 362.949 3.22331 362.949C2.42365 362.949 1.82545 362.651 1.42872 362.056C1.02579 361.455 0.82432 360.599 0.82432 359.49C0.82432 358.38 1.02579 357.525 1.42872 356.923C1.82545 356.328 2.42365 356.031 3.22331 356.031C4.01677 356.031 4.61497 356.328 5.0179 356.923C5.42083 357.525 5.6223 358.38 5.6223 359.49C5.6223 360.599 5.42083 361.455 5.0179 362.056ZM3.22331 356.737C2.16949 356.737 1.64258 357.655 1.64258 359.49C1.64258 361.324 2.16949 362.242 3.22331 362.242C4.27713 362.242 4.80404 361.324 4.80404 359.49C4.80404 357.655 4.27713 356.737 3.22331 356.737ZM9.93981 359.248C10.3241 359.397 10.6248 359.617 10.8418 359.908C11.0587 360.193 11.1672 360.531 11.1672 360.922C11.1672 361.541 10.9471 362.034 10.507 362.4C10.0669 362.766 9.48729 362.949 8.76821 362.949C8.04914 362.949 7.46954 362.766 7.02941 362.4C6.58929 362.034 6.36922 361.541 6.36922 360.922C6.36922 360.531 6.47771 360.193 6.69467 359.908C6.91163 359.617 7.21228 359.397 7.59661 359.248C6.95812 358.969 6.63888 358.501 6.63888 357.844C6.63888 357.28 6.84034 356.833 7.24327 356.505C7.64621 356.189 8.15452 356.031 8.76821 356.031C9.38191 356.031 9.89022 356.189 10.2932 356.505C10.6961 356.833 10.8975 357.28 10.8975 357.844C10.8975 358.501 10.5783 358.969 9.93981 359.248ZM9.74455 357.025C9.49659 356.833 9.17114 356.737 8.76821 356.737C8.36528 356.737 8.03984 356.833 7.79188 357.025C7.53772 357.224 7.41065 357.497 7.41065 357.844C7.41065 358.191 7.53772 358.464 7.79188 358.662C8.03984 358.854 8.36528 358.95 8.76821 358.95C9.17114 358.95 9.49659 358.854 9.74455 358.662C9.9987 358.464 10.1258 358.191 10.1258 357.844C10.1258 357.497 9.9987 357.224 9.74455 357.025ZM7.61521 361.889C7.90656 362.124 8.2909 362.242 8.76821 362.242C9.24553 362.242 9.62987 362.124 9.92122 361.889C10.2064 361.659 10.3489 361.337 10.3489 360.922C10.3489 360.5 10.2064 360.175 9.92122 359.945C9.63607 359.716 9.25173 359.601 8.76821 359.601C8.2847 359.601 7.90036 359.716 7.61521 359.945C7.33006 360.175 7.18748 360.5 7.18748 360.922C7.18748 361.337 7.33006 361.659 7.61521 361.889ZM12.8496 359.164H11.9105V358.234H12.8496V359.164ZM12.8496 362.8H11.9105V361.87H12.8496V362.8ZM17.9303 362.056C17.5274 362.651 16.9292 362.949 16.1358 362.949C15.3361 362.949 14.7379 362.651 14.3412 362.056C13.9382 361.455 13.7368 360.599 13.7368 359.49C13.7368 358.38 13.9382 357.525 14.3412 356.923C14.7379 356.328 15.3361 356.031 16.1358 356.031C16.9292 356.031 17.5274 356.328 17.9303 356.923C18.3333 357.525 18.5347 358.38 18.5347 359.49C18.5347 360.599 18.3333 361.455 17.9303 362.056ZM16.1358 356.737C15.0819 356.737 14.555 357.655 14.555 359.49C14.555 361.324 15.0819 362.242 16.1358 362.242C17.1896 362.242 17.7165 361.324 17.7165 359.49C17.7165 357.655 17.1896 356.737 16.1358 356.737ZM23.5693 362.056C23.1664 362.651 22.5682 362.949 21.7747 362.949C20.9751 362.949 20.3769 362.651 19.9801 362.056C19.5772 361.455 19.3757 360.599 19.3757 359.49C19.3757 358.38 19.5772 357.525 19.9801 356.923C20.3769 356.328 20.9751 356.031 21.7747 356.031C22.5682 356.031 23.1664 356.328 23.5693 356.923C23.9723 357.525 24.1737 358.38 24.1737 359.49C24.1737 360.599 23.9723 361.455 23.5693 362.056ZM21.7747 356.737C20.7209 356.737 20.194 357.655 20.194 359.49C20.194 361.324 20.7209 362.242 21.7747 362.242C22.8285 362.242 23.3555 361.324 23.3555 359.49C23.3555 357.655 22.8285 356.737 21.7747 356.737Z" fill="#02171D"/>
<line x1="87.7131" y1="350.8" x2="87.7131" y2="-47.7998" stroke="#E7ECEE" stroke-width="0.773978"/>
<path d="M80.5635 362.056C80.1606 362.651 79.5624 362.949 78.7689 362.949C77.9693 362.949 77.3711 362.651 76.9743 362.056C76.5714 361.455 76.3699 360.599 76.3699 359.49C76.3699 358.38 76.5714 357.525 76.9743 356.923C77.3711 356.328 77.9693 356.031 78.7689 356.031C79.5624 356.031 80.1606 356.328 80.5635 356.923C80.9664 357.525 81.1679 358.38 81.1679 359.49C81.1679 360.599 80.9664 361.455 80.5635 362.056ZM78.7689 356.737C77.7151 356.737 77.1882 357.655 77.1882 359.49C77.1882 361.324 77.7151 362.242 78.7689 362.242C79.8227 362.242 80.3497 361.324 80.3497 359.49C80.3497 357.655 79.8227 356.737 78.7689 356.737ZM85.7004 356.57C86.0599 356.861 86.3141 357.249 86.4629 357.732C86.6116 358.209 86.686 358.811 86.686 359.536C86.686 360.627 86.4752 361.483 86.0537 362.102C85.6384 362.716 85.0433 363.023 84.2684 363.023C83.6733 363.023 83.1805 362.865 82.79 362.549C82.3994 362.233 82.1546 361.796 82.0554 361.238H82.8179C82.8923 361.585 83.0534 361.851 83.3014 362.037C83.5555 362.223 83.8779 362.316 84.2684 362.316C85.3408 362.316 85.8863 361.433 85.9049 359.666C85.7252 359.933 85.4772 360.15 85.1611 360.317C84.8511 360.485 84.5381 360.568 84.2219 360.568C83.5277 360.568 82.979 360.357 82.5761 359.936C82.167 359.514 81.9624 358.981 81.9624 358.337C81.9624 357.686 82.1701 357.153 82.5854 356.737C82.9945 356.316 83.5462 356.105 84.2405 356.105C84.817 356.105 85.3036 356.26 85.7004 356.57ZM83.1898 359.434C83.4564 359.719 83.8066 359.862 84.2405 359.862C84.6683 359.862 85.0216 359.719 85.3005 359.434C85.5795 359.155 85.719 358.789 85.719 358.337C85.719 357.89 85.5795 357.521 85.3005 357.23C85.0216 356.951 84.6683 356.812 84.2405 356.812C83.8066 356.812 83.4564 356.954 83.1898 357.239C82.9171 357.531 82.7807 357.896 82.7807 358.337C82.7807 358.777 82.9171 359.142 83.1898 359.434ZM88.5042 359.164H87.5651V358.234H88.5042V359.164ZM88.5042 362.8H87.5651V361.87H88.5042V362.8ZM93.5849 362.056C93.182 362.651 92.5838 362.949 91.7903 362.949C90.9907 362.949 90.3925 362.651 89.9957 362.056C89.5928 361.455 89.3913 360.599 89.3913 359.49C89.3913 358.38 89.5928 357.525 89.9957 356.923C90.3925 356.328 90.9907 356.031 91.7903 356.031C92.5838 356.031 93.182 356.328 93.5849 356.923C93.9879 357.525 94.1893 358.38 94.1893 359.49C94.1893 360.599 93.9879 361.455 93.5849 362.056ZM91.7903 356.737C90.7365 356.737 90.2096 357.655 90.2096 359.49C90.2096 361.324 90.7365 362.242 91.7903 362.242C92.8442 362.242 93.3711 361.324 93.3711 359.49C93.3711 357.655 92.8442 356.737 91.7903 356.737ZM99.2239 362.056C98.821 362.651 98.2228 362.949 97.4293 362.949C96.6296 362.949 96.0314 362.651 95.6347 362.056C95.2318 361.455 95.0303 360.599 95.0303 359.49C95.0303 358.38 95.2318 357.525 95.6347 356.923C96.0314 356.328 96.6296 356.031 97.4293 356.031C98.2228 356.031 98.821 356.328 99.2239 356.923C99.6268 357.525 99.8283 358.38 99.8283 359.49C99.8283 360.599 99.6268 361.455 99.2239 362.056ZM97.4293 356.737C96.3755 356.737 95.8486 357.655 95.8486 359.49C95.8486 361.324 96.3755 362.242 97.4293 362.242C98.4831 362.242 99.01 361.324 99.01 359.49C99.01 357.655 98.4831 356.737 97.4293 356.737Z" fill="#02171D"/>
<line x1="162.313" y1="350.8" x2="162.313" y2="-47.7998" stroke="#E7ECEE" stroke-width="0.773978"/>
<path d="M153.682 356.179H154.314V362.8H153.533V357.862H152.027V357.249L152.176 357.239C152.647 357.208 152.997 357.115 153.227 356.96C153.456 356.805 153.608 356.545 153.682 356.179ZM159.581 362.056C159.178 362.651 158.58 362.949 157.787 362.949C156.987 362.949 156.389 362.651 155.992 362.056C155.589 361.455 155.388 360.599 155.388 359.49C155.388 358.38 155.589 357.525 155.992 356.923C156.389 356.328 156.987 356.031 157.787 356.031C158.58 356.031 159.178 356.328 159.581 356.923C159.984 357.525 160.186 358.38 160.186 359.49C160.186 360.599 159.984 361.455 159.581 362.056ZM157.787 356.737C156.733 356.737 156.206 357.655 156.206 359.49C156.206 361.324 156.733 362.242 157.787 362.242C158.84 362.242 159.367 361.324 159.367 359.49C159.367 357.655 158.84 356.737 157.787 356.737ZM162.01 359.164H161.071V358.234H162.01V359.164ZM162.01 362.8H161.071V361.87H162.01V362.8ZM167.091 362.056C166.688 362.651 166.09 362.949 165.296 362.949C164.497 362.949 163.898 362.651 163.502 362.056C163.099 361.455 162.897 360.599 162.897 359.49C162.897 358.38 163.099 357.525 163.502 356.923C163.898 356.328 164.497 356.031 165.296 356.031C166.09 356.031 166.688 356.328 167.091 356.923C167.494 357.525 167.695 358.38 167.695 359.49C167.695 360.599 167.494 361.455 167.091 362.056ZM165.296 356.737C164.242 356.737 163.716 357.655 163.716 359.49C163.716 361.324 164.242 362.242 165.296 362.242C166.35 362.242 166.877 361.324 166.877 359.49C166.877 357.655 166.35 356.737 165.296 356.737ZM172.73 362.056C172.327 362.651 171.729 362.949 170.935 362.949C170.136 362.949 169.537 362.651 169.141 362.056C168.738 361.455 168.536 360.599 168.536 359.49C168.536 358.38 168.738 357.525 169.141 356.923C169.537 356.328 170.136 356.031 170.935 356.031C171.729 356.031 172.327 356.328 172.73 356.923C173.133 357.525 173.334 358.38 173.334 359.49C173.334 360.599 173.133 361.455 172.73 362.056ZM170.935 356.737C169.881 356.737 169.354 357.655 169.354 359.49C169.354 361.324 169.881 362.242 170.935 362.242C171.989 362.242 172.516 361.324 172.516 359.49C172.516 357.655 171.989 356.737 170.935 356.737Z" fill="#02171D"/>
<line x1="234.413" y1="350.8" x2="234.413" y2="-47.7998" stroke="#E7ECEE" stroke-width="0.773978"/>
<path d="M226.985 356.179H227.617V362.8H226.836V357.862H225.33V357.249L225.479 357.239C225.95 357.208 226.3 357.115 226.529 356.96C226.759 356.805 226.911 356.545 226.985 356.179ZM230.308 356.179H230.941V362.8H230.16V357.862H228.653V357.249L228.802 357.239C229.273 357.208 229.623 357.115 229.853 356.96C230.082 356.805 230.234 356.545 230.308 356.179ZM232.907 359.164H231.967V358.234H232.907V359.164ZM232.907 362.8H231.967V361.87H232.907V362.8ZM237.987 362.056C237.584 362.651 236.986 362.949 236.193 362.949C235.393 362.949 234.795 362.651 234.398 362.056C233.995 361.455 233.794 360.599 233.794 359.49C233.794 358.38 233.995 357.525 234.398 356.923C234.795 356.328 235.393 356.031 236.193 356.031C236.986 356.031 237.584 356.328 237.987 356.923C238.39 357.525 238.592 358.38 238.592 359.49C238.592 360.599 238.39 361.455 237.987 362.056ZM236.193 356.737C235.139 356.737 234.612 357.655 234.612 359.49C234.612 361.324 235.139 362.242 236.193 362.242C237.246 362.242 237.773 361.324 237.773 359.49C237.773 357.655 237.246 356.737 236.193 356.737ZM243.626 362.056C243.223 362.651 242.625 362.949 241.832 362.949C241.032 362.949 240.434 362.651 240.037 362.056C239.634 361.455 239.433 360.599 239.433 359.49C239.433 358.38 239.634 357.525 240.037 356.923C240.434 356.328 241.032 356.031 241.832 356.031C242.625 356.031 243.223 356.328 243.626 356.923C244.029 357.525 244.231 358.38 244.231 359.49C244.231 360.599 244.029 361.455 243.626 362.056ZM241.832 356.737C240.778 356.737 240.251 357.655 240.251 359.49C240.251 361.324 240.778 362.242 241.832 362.242C242.885 362.242 243.412 361.324 243.412 359.49C243.412 357.655 242.885 356.737 241.832 356.737Z" fill="#02171D"/>
<path d="M297.7 356.179H298.332V362.8H297.551V357.862H296.045V357.249L296.193 357.239C296.664 357.208 297.015 357.115 297.244 356.96C297.473 356.805 297.625 356.545 297.7 356.179ZM300.251 362.093H303.748V362.8H299.377L299.396 362.437C299.433 361.892 299.557 361.424 299.768 361.033C299.979 360.643 300.335 360.302 300.837 360.01L301.674 359.527C302.096 359.279 302.393 359.037 302.567 358.801C302.746 358.566 302.836 358.281 302.836 357.946C302.836 357.58 302.719 357.289 302.483 357.072C302.254 356.849 301.934 356.737 301.525 356.737C300.602 356.737 300.14 357.211 300.14 358.16H299.368C299.362 357.484 299.551 356.96 299.935 356.588C300.32 356.217 300.856 356.031 301.544 356.031C302.17 356.031 302.678 356.207 303.069 356.561C303.459 356.926 303.655 357.388 303.655 357.946C303.655 358.801 303.152 359.521 302.148 360.103L301.442 360.512C301.032 360.76 300.738 361.002 300.558 361.238C300.378 361.467 300.276 361.752 300.251 362.093ZM305.392 359.164H304.453V358.234H305.392V359.164ZM305.392 362.8H304.453V361.87H305.392V362.8ZM310.473 362.056C310.07 362.651 309.472 362.949 308.678 362.949C307.878 362.949 307.28 362.651 306.884 362.056C306.481 361.455 306.279 360.599 306.279 359.49C306.279 358.38 306.481 357.525 306.884 356.923C307.28 356.328 307.878 356.031 308.678 356.031C309.472 356.031 310.07 356.328 310.473 356.923C310.876 357.525 311.077 358.38 311.077 359.49C311.077 360.599 310.876 361.455 310.473 362.056ZM308.678 356.737C307.624 356.737 307.097 357.655 307.097 359.49C307.097 361.324 307.624 362.242 308.678 362.242C309.732 362.242 310.259 361.324 310.259 359.49C310.259 357.655 309.732 356.737 308.678 356.737ZM316.112 362.056C315.709 362.651 315.111 362.949 314.317 362.949C313.517 362.949 312.919 362.651 312.523 362.056C312.12 361.455 311.918 360.599 311.918 359.49C311.918 358.38 312.12 357.525 312.523 356.923C312.919 356.328 313.517 356.031 314.317 356.031C315.111 356.031 315.709 356.328 316.112 356.923C316.515 357.525 316.716 358.38 316.716 359.49C316.716 360.599 316.515 361.455 316.112 362.056ZM314.317 356.737C313.263 356.737 312.736 357.655 312.736 359.49C312.736 361.324 313.263 362.242 314.317 362.242C315.371 362.242 315.898 361.324 315.898 359.49C315.898 357.655 315.371 356.737 314.317 356.737Z" fill="#02171D"/>
<line x1="252" y1="14.387" x2="-9" y2="14.387" stroke="#E7ECEE" stroke-width="0.773978"/>
<path d="M262.612 16.684C262.612 17.42 262.356 18.012 261.844 18.46C261.332 18.9 260.616 19.14 259.696 19.18V20.392H258.856V19.168C257.912 19.096 257.176 18.808 256.648 18.304C256.128 17.8 255.864 17.092 255.856 16.18H256.9C256.924 17.428 257.576 18.116 258.856 18.244V14.992L258.736 14.968C257.872 14.768 257.224 14.48 256.792 14.104C256.36 13.72 256.144 13.184 256.144 12.496C256.144 11.848 256.384 11.324 256.864 10.924C257.352 10.524 258.016 10.304 258.856 10.264V9.064H259.696V10.3C261.44 10.468 262.34 11.348 262.396 12.94H261.364C261.324 12.42 261.172 12.02 260.908 11.74C260.652 11.46 260.248 11.284 259.696 11.212V14.188L259.948 14.248C260.892 14.456 261.572 14.756 261.988 15.148C262.404 15.532 262.612 16.044 262.612 16.684ZM257.188 12.496C257.188 12.896 257.308 13.208 257.548 13.432C257.788 13.648 258.224 13.836 258.856 13.996V11.176C258.312 11.208 257.896 11.34 257.608 11.572C257.328 11.796 257.188 12.104 257.188 12.496ZM259.696 15.184V18.268C260.944 18.18 261.568 17.652 261.568 16.684C261.568 16.3 261.424 15.996 261.136 15.772C260.856 15.54 260.376 15.344 259.696 15.184ZM268.926 18.04C268.406 18.808 267.634 19.192 266.61 19.192C265.578 19.192 264.806 18.808 264.294 18.04C263.774 17.264 263.514 16.16 263.514 14.728C263.514 13.296 263.774 12.192 264.294 11.416C264.806 10.648 265.578 10.264 266.61 10.264C267.634 10.264 268.406 10.648 268.926 11.416C269.446 12.192 269.706 13.296 269.706 14.728C269.706 16.16 269.446 17.264 268.926 18.04ZM266.61 11.176C265.25 11.176 264.57 12.36 264.57 14.728C264.57 17.096 265.25 18.28 266.61 18.28C267.97 18.28 268.65 17.096 268.65 14.728C268.65 12.36 267.97 11.176 266.61 11.176ZM271.463 19H270.251V17.8H271.463V19ZM273.981 10.456H274.797V19H273.789V12.628H271.845V11.836L272.037 11.824C272.645 11.784 273.097 11.664 273.393 11.464C273.689 11.264 273.885 10.928 273.981 10.456ZM280.61 14.416C281.106 14.608 281.494 14.892 281.774 15.268C282.054 15.636 282.194 16.072 282.194 16.576C282.194 17.376 281.91 18.012 281.342 18.484C280.774 18.956 280.026 19.192 279.098 19.192C278.17 19.192 277.422 18.956 276.854 18.484C276.286 18.012 276.002 17.376 276.002 16.576C276.002 16.072 276.142 15.636 276.422 15.268C276.702 14.892 277.09 14.608 277.586 14.416C276.762 14.056 276.35 13.452 276.35 12.604C276.35 11.876 276.61 11.3 277.13 10.876C277.65 10.468 278.306 10.264 279.098 10.264C279.89 10.264 280.546 10.468 281.066 10.876C281.586 11.3 281.846 11.876 281.846 12.604C281.846 13.452 281.434 14.056 280.61 14.416ZM280.358 11.548C280.038 11.3 279.618 11.176 279.098 11.176C278.578 11.176 278.158 11.3 277.838 11.548C277.51 11.804 277.346 12.156 277.346 12.604C277.346 13.052 277.51 13.404 277.838 13.66C278.158 13.908 278.578 14.032 279.098 14.032C279.618 14.032 280.038 13.908 280.358 13.66C280.686 13.404 280.85 13.052 280.85 12.604C280.85 12.156 280.686 11.804 280.358 11.548ZM277.61 17.824C277.986 18.128 278.482 18.28 279.098 18.28C279.714 18.28 280.21 18.128 280.586 17.824C280.954 17.528 281.138 17.112 281.138 16.576C281.138 16.032 280.954 15.612 280.586 15.316C280.218 15.02 279.722 14.872 279.098 14.872C278.474 14.872 277.978 15.02 277.61 15.316C277.242 15.612 277.058 16.032 277.058 16.576C277.058 17.112 277.242 17.528 277.61 17.824ZM288.567 18.04C288.047 18.808 287.275 19.192 286.251 19.192C285.219 19.192 284.447 18.808 283.935 18.04C283.415 17.264 283.155 16.16 283.155 14.728C283.155 13.296 283.415 12.192 283.935 11.416C284.447 10.648 285.219 10.264 286.251 10.264C287.275 10.264 288.047 10.648 288.567 11.416C289.087 12.192 289.347 13.296 289.347 14.728C289.347 16.16 289.087 17.264 288.567 18.04ZM286.251 11.176C284.891 11.176 284.211 12.36 284.211 14.728C284.211 17.096 284.891 18.28 286.251 18.28C287.611 18.28 288.291 17.096 288.291 14.728C288.291 12.36 287.611 11.176 286.251 11.176ZM295.844 18.04C295.324 18.808 294.552 19.192 293.528 19.192C292.496 19.192 291.724 18.808 291.212 18.04C290.692 17.264 290.432 16.16 290.432 14.728C290.432 13.296 290.692 12.192 291.212 11.416C291.724 10.648 292.496 10.264 293.528 10.264C294.552 10.264 295.324 10.648 295.844 11.416C296.364 12.192 296.624 13.296 296.624 14.728C296.624 16.16 296.364 17.264 295.844 18.04ZM293.528 11.176C292.168 11.176 291.488 12.36 291.488 14.728C291.488 17.096 292.168 18.28 293.528 18.28C294.888 18.28 295.568 17.096 295.568 14.728C295.568 12.36 294.888 11.176 293.528 11.176ZM303.121 18.04C302.601 18.808 301.829 19.192 300.805 19.192C299.773 19.192 299.001 18.808 298.489 18.04C297.969 17.264 297.709 16.16 297.709 14.728C297.709 13.296 297.969 12.192 298.489 11.416C299.001 10.648 299.773 10.264 300.805 10.264C301.829 10.264 302.601 10.648 303.121 11.416C303.641 12.192 303.901 13.296 303.901 14.728C303.901 16.16 303.641 17.264 303.121 18.04ZM300.805 11.176C299.445 11.176 298.765 12.36 298.765 14.728C298.765 17.096 299.445 18.28 300.805 18.28C302.165 18.28 302.845 17.096 302.845 14.728C302.845 12.36 302.165 11.176 300.805 11.176Z" fill="#77868B"/>
<line x1="254" y1="61.387" x2="-9" y2="61.387" stroke="#E7ECEE" stroke-width="0.773978"/>
<path d="M264.473 63.684C264.473 64.42 264.217 65.012 263.705 65.46C263.193 65.9 262.477 66.14 261.557 66.18V67.392H260.717V66.168C259.773 66.096 259.037 65.808 258.509 65.304C257.989 64.8 257.725 64.092 257.717 63.18H258.761C258.785 64.428 259.437 65.116 260.717 65.244V61.992L260.597 61.968C259.733 61.768 259.085 61.48 258.653 61.104C258.221 60.72 258.005 60.184 258.005 59.496C258.005 58.848 258.245 58.324 258.725 57.924C259.213 57.524 259.877 57.304 260.717 57.264V56.064H261.557V57.3C263.301 57.468 264.201 58.348 264.257 59.94H263.225C263.185 59.42 263.033 59.02 262.769 58.74C262.513 58.46 262.109 58.284 261.557 58.212V61.188L261.809 61.248C262.753 61.456 263.433 61.756 263.849 62.148C264.265 62.532 264.473 63.044 264.473 63.684ZM259.049 59.496C259.049 59.896 259.169 60.208 259.409 60.432C259.649 60.648 260.085 60.836 260.717 60.996V58.176C260.173 58.208 259.757 58.34 259.469 58.572C259.189 58.796 259.049 59.104 259.049 59.496ZM261.557 62.184V65.268C262.805 65.18 263.429 64.652 263.429 63.684C263.429 63.3 263.285 62.996 262.997 62.772C262.717 62.54 262.237 62.344 261.557 62.184ZM270.787 65.04C270.267 65.808 269.495 66.192 268.471 66.192C267.439 66.192 266.667 65.808 266.155 65.04C265.635 64.264 265.375 63.16 265.375 61.728C265.375 60.296 265.635 59.192 266.155 58.416C266.667 57.648 267.439 57.264 268.471 57.264C269.495 57.264 270.267 57.648 270.787 58.416C271.307 59.192 271.567 60.296 271.567 61.728C271.567 63.16 271.307 64.264 270.787 65.04ZM268.471 58.176C267.111 58.176 266.431 59.36 266.431 61.728C266.431 64.096 267.111 65.28 268.471 65.28C269.831 65.28 270.511 64.096 270.511 61.728C270.511 59.36 269.831 58.176 268.471 58.176ZM273.324 66H272.112V64.8H273.324V66ZM275.842 57.456H276.658V66H275.65V59.628H273.706V58.836L273.898 58.824C274.506 58.784 274.958 58.664 275.254 58.464C275.55 58.264 275.746 57.928 275.842 57.456ZM277.683 58.368V57.456H283.167V58.248C281.199 60.456 280.175 63.04 280.095 66H279.051C279.091 64.52 279.347 63.168 279.819 61.944C280.299 60.712 281.027 59.52 282.003 58.368H277.683ZM288.705 65.04C288.185 65.808 287.413 66.192 286.389 66.192C285.357 66.192 284.585 65.808 284.073 65.04C283.553 64.264 283.293 63.16 283.293 61.728C283.293 60.296 283.553 59.192 284.073 58.416C284.585 57.648 285.357 57.264 286.389 57.264C287.413 57.264 288.185 57.648 288.705 58.416C289.225 59.192 289.485 60.296 289.485 61.728C289.485 63.16 289.225 64.264 288.705 65.04ZM286.389 58.176C285.029 58.176 284.349 59.36 284.349 61.728C284.349 64.096 285.029 65.28 286.389 65.28C287.749 65.28 288.429 64.096 288.429 61.728C288.429 59.36 287.749 58.176 286.389 58.176ZM295.983 65.04C295.463 65.808 294.691 66.192 293.667 66.192C292.635 66.192 291.863 65.808 291.351 65.04C290.831 64.264 290.571 63.16 290.571 61.728C290.571 60.296 290.831 59.192 291.351 58.416C291.863 57.648 292.635 57.264 293.667 57.264C294.691 57.264 295.463 57.648 295.983 58.416C296.503 59.192 296.763 60.296 296.763 61.728C296.763 63.16 296.503 64.264 295.983 65.04ZM293.667 58.176C292.307 58.176 291.627 59.36 291.627 61.728C291.627 64.096 292.307 65.28 293.667 65.28C295.027 65.28 295.707 64.096 295.707 61.728C295.707 59.36 295.027 58.176 293.667 58.176ZM303.26 65.04C302.74 65.808 301.968 66.192 300.944 66.192C299.912 66.192 299.14 65.808 298.628 65.04C298.108 64.264 297.848 63.16 297.848 61.728C297.848 60.296 298.108 59.192 298.628 58.416C299.14 57.648 299.912 57.264 300.944 57.264C301.968 57.264 302.74 57.648 303.26 58.416C303.78 59.192 304.04 60.296 304.04 61.728C304.04 63.16 303.78 64.264 303.26 65.04ZM300.944 58.176C299.584 58.176 298.904 59.36 298.904 61.728C298.904 64.096 299.584 65.28 300.944 65.28C302.304 65.28 302.984 64.096 302.984 61.728C302.984 59.36 302.304 58.176 300.944 58.176Z" fill="#77868B"/>
<line x1="252" y1="108.387" x2="-9" y2="108.387" stroke="#E7ECEE" stroke-width="0.773978"/>
<path d="M262.542 110.684C262.542 111.42 262.286 112.012 261.774 112.46C261.262 112.9 260.546 113.14 259.626 113.18V114.392H258.786V113.168C257.842 113.096 257.106 112.808 256.578 112.304C256.058 111.8 255.794 111.092 255.786 110.18H256.83C256.854 111.428 257.506 112.116 258.786 112.244V108.992L258.666 108.968C257.802 108.768 257.154 108.48 256.722 108.104C256.29 107.72 256.074 107.184 256.074 106.496C256.074 105.848 256.314 105.324 256.794 104.924C257.282 104.524 257.946 104.304 258.786 104.264V103.064H259.626V104.3C261.37 104.468 262.27 105.348 262.326 106.94H261.294C261.254 106.42 261.102 106.02 260.838 105.74C260.582 105.46 260.178 105.284 259.626 105.212V108.188L259.878 108.248C260.822 108.456 261.502 108.756 261.918 109.148C262.334 109.532 262.542 110.044 262.542 110.684ZM257.118 106.496C257.118 106.896 257.238 107.208 257.478 107.432C257.718 107.648 258.154 107.836 258.786 107.996V105.176C258.242 105.208 257.826 105.34 257.538 105.572C257.258 105.796 257.118 106.104 257.118 106.496ZM259.626 109.184V112.268C260.874 112.18 261.498 111.652 261.498 110.684C261.498 110.3 261.354 109.996 261.066 109.772C260.786 109.54 260.306 109.344 259.626 109.184ZM268.856 112.04C268.336 112.808 267.564 113.192 266.54 113.192C265.508 113.192 264.736 112.808 264.224 112.04C263.704 111.264 263.444 110.16 263.444 108.728C263.444 107.296 263.704 106.192 264.224 105.416C264.736 104.648 265.508 104.264 266.54 104.264C267.564 104.264 268.336 104.648 268.856 105.416C269.376 106.192 269.636 107.296 269.636 108.728C269.636 110.16 269.376 111.264 268.856 112.04ZM266.54 105.176C265.18 105.176 264.5 106.36 264.5 108.728C264.5 111.096 265.18 112.28 266.54 112.28C267.9 112.28 268.58 111.096 268.58 108.728C268.58 106.36 267.9 105.176 266.54 105.176ZM271.393 113H270.181V111.8H271.393V113ZM273.911 104.456H274.727V113H273.719V106.628H271.775V105.836L271.967 105.824C272.575 105.784 273.027 105.664 273.323 105.464C273.619 105.264 273.815 104.928 273.911 104.456ZM279.292 107.432C280.188 107.432 280.9 107.704 281.428 108.248C281.948 108.792 282.208 109.48 282.208 110.312C282.208 111.144 281.944 111.832 281.416 112.376C280.872 112.92 280.156 113.192 279.268 113.192C278.524 113.192 277.896 112.992 277.384 112.592C276.92 112.216 276.592 111.72 276.4 111.104C276.208 110.48 276.112 109.7 276.112 108.764C276.112 107.348 276.384 106.244 276.928 105.452C277.48 104.66 278.268 104.264 279.292 104.264C280.036 104.264 280.656 104.468 281.152 104.876C281.648 105.284 281.96 105.848 282.088 106.568H281.104C281.008 106.12 280.8 105.776 280.48 105.536C280.168 105.296 279.772 105.176 279.292 105.176C277.868 105.176 277.144 106.316 277.12 108.596C277.352 108.252 277.668 107.972 278.068 107.756C278.476 107.54 278.884 107.432 279.292 107.432ZM277.9 111.728C278.26 112.096 278.716 112.28 279.268 112.28C279.828 112.28 280.28 112.096 280.624 111.728C280.976 111.352 281.152 110.88 281.152 110.312C281.152 109.744 280.976 109.272 280.624 108.896C280.28 108.528 279.828 108.344 279.268 108.344C278.716 108.344 278.26 108.524 277.9 108.884C277.54 109.26 277.36 109.736 277.36 110.312C277.36 110.896 277.54 111.368 277.9 111.728ZM288.637 112.04C288.117 112.808 287.345 113.192 286.321 113.192C285.289 113.192 284.517 112.808 284.005 112.04C283.485 111.264 283.225 110.16 283.225 108.728C283.225 107.296 283.485 106.192 284.005 105.416C284.517 104.648 285.289 104.264 286.321 104.264C287.345 104.264 288.117 104.648 288.637 105.416C289.157 106.192 289.417 107.296 289.417 108.728C289.417 110.16 289.157 111.264 288.637 112.04ZM286.321 105.176C284.961 105.176 284.281 106.36 284.281 108.728C284.281 111.096 284.961 112.28 286.321 112.28C287.681 112.28 288.361 111.096 288.361 108.728C288.361 106.36 287.681 105.176 286.321 105.176ZM295.914 112.04C295.394 112.808 294.622 113.192 293.598 113.192C292.566 113.192 291.794 112.808 291.282 112.04C290.762 111.264 290.502 110.16 290.502 108.728C290.502 107.296 290.762 106.192 291.282 105.416C291.794 104.648 292.566 104.264 293.598 104.264C294.622 104.264 295.394 104.648 295.914 105.416C296.434 106.192 296.694 107.296 296.694 108.728C296.694 110.16 296.434 111.264 295.914 112.04ZM293.598 105.176C292.238 105.176 291.558 106.36 291.558 108.728C291.558 111.096 292.238 112.28 293.598 112.28C294.958 112.28 295.638 111.096 295.638 108.728C295.638 106.36 294.958 105.176 293.598 105.176ZM303.192 112.04C302.672 112.808 301.9 113.192 300.876 113.192C299.844 113.192 299.072 112.808 298.56 112.04C298.04 111.264 297.78 110.16 297.78 108.728C297.78 107.296 298.04 106.192 298.56 105.416C299.072 104.648 299.844 104.264 300.876 104.264C301.9 104.264 302.672 104.648 303.192 105.416C303.712 106.192 303.972 107.296 303.972 108.728C303.972 110.16 303.712 111.264 303.192 112.04ZM300.876 105.176C299.516 105.176 298.836 106.36 298.836 108.728C298.836 111.096 299.516 112.28 300.876 112.28C302.236 112.28 302.916 111.096 302.916 108.728C302.916 106.36 302.236 105.176 300.876 105.176Z" fill="#77868B"/>
<path d="M263.153 157.684C263.153 158.42 262.897 159.012 262.385 159.46C261.873 159.9 261.157 160.14 260.237 160.18V161.392H259.397V160.168C258.453 160.096 257.717 159.808 257.189 159.304C256.669 158.8 256.405 158.092 256.397 157.18H257.441C257.465 158.428 258.117 159.116 259.397 159.244V155.992L259.277 155.968C258.413 155.768 257.765 155.48 257.333 155.104C256.901 154.72 256.685 154.184 256.685 153.496C256.685 152.848 256.925 152.324 257.405 151.924C257.893 151.524 258.557 151.304 259.397 151.264V150.064H260.237V151.3C261.981 151.468 262.881 152.348 262.937 153.94H261.905C261.865 153.42 261.713 153.02 261.449 152.74C261.193 152.46 260.789 152.284 260.237 152.212V155.188L260.489 155.248C261.433 155.456 262.113 155.756 262.529 156.148C262.945 156.532 263.153 157.044 263.153 157.684ZM257.729 153.496C257.729 153.896 257.849 154.208 258.089 154.432C258.329 154.648 258.765 154.836 259.397 154.996V152.176C258.853 152.208 258.437 152.34 258.149 152.572C257.869 152.796 257.729 153.104 257.729 153.496ZM260.237 156.184V159.268C261.485 159.18 262.109 158.652 262.109 157.684C262.109 157.3 261.965 156.996 261.677 156.772C261.397 156.54 260.917 156.344 260.237 156.184ZM269.467 159.04C268.947 159.808 268.175 160.192 267.151 160.192C266.119 160.192 265.347 159.808 264.835 159.04C264.315 158.264 264.055 157.16 264.055 155.728C264.055 154.296 264.315 153.192 264.835 152.416C265.347 151.648 266.119 151.264 267.151 151.264C268.175 151.264 268.947 151.648 269.467 152.416C269.987 153.192 270.247 154.296 270.247 155.728C270.247 157.16 269.987 158.264 269.467 159.04ZM267.151 152.176C265.791 152.176 265.111 153.36 265.111 155.728C265.111 158.096 265.791 159.28 267.151 159.28C268.511 159.28 269.191 158.096 269.191 155.728C269.191 153.36 268.511 152.176 267.151 152.176ZM272.004 160H270.792V158.8H272.004V160ZM274.522 151.456H275.338V160H274.33V153.628H272.386V152.836L272.578 152.824C273.186 152.784 273.638 152.664 273.934 152.464C274.23 152.264 274.426 151.928 274.522 151.456ZM279.687 154.432C280.599 154.432 281.311 154.7 281.823 155.236C282.335 155.772 282.591 156.464 282.591 157.312C282.591 158.152 282.323 158.84 281.787 159.376C281.243 159.92 280.523 160.192 279.627 160.192C278.811 160.192 278.135 159.956 277.599 159.484C277.063 159.02 276.771 158.4 276.723 157.624H277.731C277.779 158.136 277.979 158.54 278.331 158.836C278.683 159.132 279.115 159.28 279.627 159.28C280.187 159.28 280.643 159.1 280.995 158.74C281.355 158.372 281.535 157.896 281.535 157.312C281.535 156.728 281.355 156.256 280.995 155.896C280.643 155.528 280.187 155.344 279.627 155.344C278.787 155.344 278.203 155.688 277.875 156.376H276.939L277.659 151.456H282.075V152.368H278.475L278.067 155.056C278.531 154.64 279.071 154.432 279.687 154.432ZM289.026 159.04C288.506 159.808 287.734 160.192 286.71 160.192C285.678 160.192 284.906 159.808 284.394 159.04C283.874 158.264 283.614 157.16 283.614 155.728C283.614 154.296 283.874 153.192 284.394 152.416C284.906 151.648 285.678 151.264 286.71 151.264C287.734 151.264 288.506 151.648 289.026 152.416C289.546 153.192 289.806 154.296 289.806 155.728C289.806 157.16 289.546 158.264 289.026 159.04ZM286.71 152.176C285.35 152.176 284.67 153.36 284.67 155.728C284.67 158.096 285.35 159.28 286.71 159.28C288.07 159.28 288.75 158.096 288.75 155.728C288.75 153.36 288.07 152.176 286.71 152.176ZM296.303 159.04C295.783 159.808 295.011 160.192 293.987 160.192C292.955 160.192 292.183 159.808 291.671 159.04C291.151 158.264 290.891 157.16 290.891 155.728C290.891 154.296 291.151 153.192 291.671 152.416C292.183 151.648 292.955 151.264 293.987 151.264C295.011 151.264 295.783 151.648 296.303 152.416C296.823 153.192 297.083 154.296 297.083 155.728C297.083 157.16 296.823 158.264 296.303 159.04ZM293.987 152.176C292.627 152.176 291.947 153.36 291.947 155.728C291.947 158.096 292.627 159.28 293.987 159.28C295.347 159.28 296.027 158.096 296.027 155.728C296.027 153.36 295.347 152.176 293.987 152.176ZM303.58 159.04C303.06 159.808 302.288 160.192 301.264 160.192C300.232 160.192 299.46 159.808 298.948 159.04C298.428 158.264 298.168 157.16 298.168 155.728C298.168 154.296 298.428 153.192 298.948 152.416C299.46 151.648 300.232 151.264 301.264 151.264C302.288 151.264 303.06 151.648 303.58 152.416C304.1 153.192 304.36 154.296 304.36 155.728C304.36 157.16 304.1 158.264 303.58 159.04ZM301.264 152.176C299.904 152.176 299.224 153.36 299.224 155.728C299.224 158.096 299.904 159.28 301.264 159.28C302.624 159.28 303.304 158.096 303.304 155.728C303.304 153.36 302.624 152.176 301.264 152.176Z" fill="#77868B"/>
<line x1="253" y1="202.387" x2="-9" y2="202.387" stroke="#E7ECEE" stroke-width="0.773978"/>
<path d="M263.223 204.684C263.223 205.42 262.967 206.012 262.455 206.46C261.943 206.9 261.227 207.14 260.307 207.18V208.392H259.467V207.168C258.523 207.096 257.787 206.808 257.259 206.304C256.739 205.8 256.475 205.092 256.467 204.18H257.511C257.535 205.428 258.187 206.116 259.467 206.244V202.992L259.347 202.968C258.483 202.768 257.835 202.48 257.403 202.104C256.971 201.72 256.755 201.184 256.755 200.496C256.755 199.848 256.995 199.324 257.475 198.924C257.963 198.524 258.627 198.304 259.467 198.264V197.064H260.307V198.3C262.051 198.468 262.951 199.348 263.007 200.94H261.975C261.935 200.42 261.783 200.02 261.519 199.74C261.263 199.46 260.859 199.284 260.307 199.212V202.188L260.559 202.248C261.503 202.456 262.183 202.756 262.599 203.148C263.015 203.532 263.223 204.044 263.223 204.684ZM257.799 200.496C257.799 200.896 257.919 201.208 258.159 201.432C258.399 201.648 258.835 201.836 259.467 201.996V199.176C258.923 199.208 258.507 199.34 258.219 199.572C257.939 199.796 257.799 200.104 257.799 200.496ZM260.307 203.184V206.268C261.555 206.18 262.179 205.652 262.179 204.684C262.179 204.3 262.035 203.996 261.747 203.772C261.467 203.54 260.987 203.344 260.307 203.184ZM269.537 206.04C269.017 206.808 268.245 207.192 267.221 207.192C266.189 207.192 265.417 206.808 264.905 206.04C264.385 205.264 264.125 204.16 264.125 202.728C264.125 201.296 264.385 200.192 264.905 199.416C265.417 198.648 266.189 198.264 267.221 198.264C268.245 198.264 269.017 198.648 269.537 199.416C270.057 200.192 270.317 201.296 270.317 202.728C270.317 204.16 270.057 205.264 269.537 206.04ZM267.221 199.176C265.861 199.176 265.181 200.36 265.181 202.728C265.181 205.096 265.861 206.28 267.221 206.28C268.581 206.28 269.261 205.096 269.261 202.728C269.261 200.36 268.581 199.176 267.221 199.176ZM272.074 207H270.862V205.8H272.074V207ZM274.592 198.456H275.408V207H274.4V200.628H272.456V199.836L272.648 199.824C273.256 199.784 273.708 199.664 274.004 199.464C274.3 199.264 274.496 198.928 274.592 198.456ZM281.668 203.952H282.82V204.864H281.668V207H280.66V204.864H276.376V203.892L280.576 198.456H281.668V203.952ZM280.66 203.952V199.776L277.432 203.952H280.66ZM288.955 206.04C288.435 206.808 287.663 207.192 286.639 207.192C285.607 207.192 284.835 206.808 284.323 206.04C283.803 205.264 283.543 204.16 283.543 202.728C283.543 201.296 283.803 200.192 284.323 199.416C284.835 198.648 285.607 198.264 286.639 198.264C287.663 198.264 288.435 198.648 288.955 199.416C289.475 200.192 289.735 201.296 289.735 202.728C289.735 204.16 289.475 205.264 288.955 206.04ZM286.639 199.176C285.279 199.176 284.599 200.36 284.599 202.728C284.599 205.096 285.279 206.28 286.639 206.28C287.999 206.28 288.679 205.096 288.679 202.728C288.679 200.36 287.999 199.176 286.639 199.176ZM296.233 206.04C295.713 206.808 294.941 207.192 293.917 207.192C292.885 207.192 292.113 206.808 291.601 206.04C291.081 205.264 290.821 204.16 290.821 202.728C290.821 201.296 291.081 200.192 291.601 199.416C292.113 198.648 292.885 198.264 293.917 198.264C294.941 198.264 295.713 198.648 296.233 199.416C296.753 200.192 297.013 201.296 297.013 202.728C297.013 204.16 296.753 205.264 296.233 206.04ZM293.917 199.176C292.557 199.176 291.877 200.36 291.877 202.728C291.877 205.096 292.557 206.28 293.917 206.28C295.277 206.28 295.957 205.096 295.957 202.728C295.957 200.36 295.277 199.176 293.917 199.176ZM303.51 206.04C302.99 206.808 302.218 207.192 301.194 207.192C300.162 207.192 299.39 206.808 298.878 206.04C298.358 205.264 298.098 204.16 298.098 202.728C298.098 201.296 298.358 200.192 298.878 199.416C299.39 198.648 300.162 198.264 301.194 198.264C302.218 198.264 302.99 198.648 303.51 199.416C304.03 200.192 304.29 201.296 304.29 202.728C304.29 204.16 304.03 205.264 303.51 206.04ZM301.194 199.176C299.834 199.176 299.154 200.36 299.154 202.728C299.154 205.096 299.834 206.28 301.194 206.28C302.554 206.28 303.234 205.096 303.234 202.728C303.234 200.36 302.554 199.176 301.194 199.176Z" fill="#77868B"/>
<line x1="253" y1="249.387" x2="-9" y2="249.387" stroke="#E7ECEE" stroke-width="0.773978"/>
<path d="M263.153 251.684C263.153 252.42 262.897 253.012 262.385 253.46C261.873 253.9 261.157 254.14 260.237 254.18V255.392H259.397V254.168C258.453 254.096 257.717 253.808 257.189 253.304C256.669 252.8 256.405 252.092 256.397 251.18H257.441C257.465 252.428 258.117 253.116 259.397 253.244V249.992L259.277 249.968C258.413 249.768 257.765 249.48 257.333 249.104C256.901 248.72 256.685 248.184 256.685 247.496C256.685 246.848 256.925 246.324 257.405 245.924C257.893 245.524 258.557 245.304 259.397 245.264V244.064H260.237V245.3C261.981 245.468 262.881 246.348 262.937 247.94H261.905C261.865 247.42 261.713 247.02 261.449 246.74C261.193 246.46 260.789 246.284 260.237 246.212V249.188L260.489 249.248C261.433 249.456 262.113 249.756 262.529 250.148C262.945 250.532 263.153 251.044 263.153 251.684ZM257.729 247.496C257.729 247.896 257.849 248.208 258.089 248.432C258.329 248.648 258.765 248.836 259.397 248.996V246.176C258.853 246.208 258.437 246.34 258.149 246.572C257.869 246.796 257.729 247.104 257.729 247.496ZM260.237 250.184V253.268C261.485 253.18 262.109 252.652 262.109 251.684C262.109 251.3 261.965 250.996 261.677 250.772C261.397 250.54 260.917 250.344 260.237 250.184ZM269.467 253.04C268.947 253.808 268.175 254.192 267.151 254.192C266.119 254.192 265.347 253.808 264.835 253.04C264.315 252.264 264.055 251.16 264.055 249.728C264.055 248.296 264.315 247.192 264.835 246.416C265.347 245.648 266.119 245.264 267.151 245.264C268.175 245.264 268.947 245.648 269.467 246.416C269.987 247.192 270.247 248.296 270.247 249.728C270.247 251.16 269.987 252.264 269.467 253.04ZM267.151 246.176C265.791 246.176 265.111 247.36 265.111 249.728C265.111 252.096 265.791 253.28 267.151 253.28C268.511 253.28 269.191 252.096 269.191 249.728C269.191 247.36 268.511 246.176 267.151 246.176ZM272.004 254H270.792V252.8H272.004V254ZM274.522 245.456H275.338V254H274.33V247.628H272.386V246.836L272.578 246.824C273.186 246.784 273.638 246.664 273.934 246.464C274.23 246.264 274.426 245.928 274.522 245.456ZM281.28 249.452C282.232 249.948 282.708 250.664 282.708 251.6C282.708 252.376 282.436 253 281.892 253.472C281.356 253.952 280.648 254.192 279.768 254.192C278.816 254.192 278.076 253.944 277.548 253.448C277.028 252.952 276.772 252.276 276.78 251.42H277.776C277.792 252.028 277.972 252.492 278.316 252.812C278.66 253.124 279.144 253.28 279.768 253.28C280.344 253.28 280.8 253.128 281.136 252.824C281.48 252.52 281.652 252.112 281.652 251.6C281.652 251.08 281.476 250.668 281.124 250.364C280.78 250.052 280.308 249.896 279.708 249.896H279.072V249.056H279.648C280.216 249.056 280.652 248.928 280.956 248.672C281.268 248.416 281.424 248.06 281.424 247.604C281.424 247.156 281.268 246.808 280.956 246.56C280.652 246.304 280.236 246.176 279.708 246.176C279.172 246.176 278.744 246.316 278.424 246.596C278.112 246.868 277.944 247.272 277.92 247.808H276.912C276.92 247.032 277.172 246.416 277.668 245.96C278.172 245.496 278.852 245.264 279.708 245.264C280.532 245.264 281.192 245.472 281.688 245.888C282.192 246.296 282.444 246.86 282.444 247.58C282.444 248.396 282.056 249.02 281.28 249.452ZM289.026 253.04C288.506 253.808 287.734 254.192 286.71 254.192C285.678 254.192 284.906 253.808 284.394 253.04C283.874 252.264 283.614 251.16 283.614 249.728C283.614 248.296 283.874 247.192 284.394 246.416C284.906 245.648 285.678 245.264 286.71 245.264C287.734 245.264 288.506 245.648 289.026 246.416C289.546 247.192 289.806 248.296 289.806 249.728C289.806 251.16 289.546 252.264 289.026 253.04ZM286.71 246.176C285.35 246.176 284.67 247.36 284.67 249.728C284.67 252.096 285.35 253.28 286.71 253.28C288.07 253.28 288.75 252.096 288.75 249.728C288.75 247.36 288.07 246.176 286.71 246.176ZM296.303 253.04C295.783 253.808 295.011 254.192 293.987 254.192C292.955 254.192 292.183 253.808 291.671 253.04C291.151 252.264 290.891 251.16 290.891 249.728C290.891 248.296 291.151 247.192 291.671 246.416C292.183 245.648 292.955 245.264 293.987 245.264C295.011 245.264 295.783 245.648 296.303 246.416C296.823 247.192 297.083 248.296 297.083 249.728C297.083 251.16 296.823 252.264 296.303 253.04ZM293.987 246.176C292.627 246.176 291.947 247.36 291.947 249.728C291.947 252.096 292.627 253.28 293.987 253.28C295.347 253.28 296.027 252.096 296.027 249.728C296.027 247.36 295.347 246.176 293.987 246.176ZM303.58 253.04C303.06 253.808 302.288 254.192 301.264 254.192C300.232 254.192 299.46 253.808 298.948 253.04C298.428 252.264 298.168 251.16 298.168 249.728C298.168 248.296 298.428 247.192 298.948 246.416C299.46 245.648 300.232 245.264 301.264 245.264C302.288 245.264 303.06 245.648 303.58 246.416C304.1 247.192 304.36 248.296 304.36 249.728C304.36 251.16 304.1 252.264 303.58 253.04ZM301.264 246.176C299.904 246.176 299.224 247.36 299.224 249.728C299.224 252.096 299.904 253.28 301.264 253.28C302.624 253.28 303.304 252.096 303.304 249.728C303.304 247.36 302.624 246.176 301.264 246.176Z" fill="#77868B"/>
<line x1="253" y1="296.387" x2="-9" y2="296.387" stroke="#E7ECEE" stroke-width="0.773978"/>
<path d="M263.399 298.684C263.399 299.42 263.143 300.012 262.631 300.46C262.119 300.9 261.403 301.14 260.483 301.18V302.392H259.643V301.168C258.699 301.096 257.963 300.808 257.435 300.304C256.915 299.8 256.651 299.092 256.643 298.18H257.687C257.711 299.428 258.363 300.116 259.643 300.244V296.992L259.523 296.968C258.659 296.768 258.011 296.48 257.579 296.104C257.147 295.72 256.931 295.184 256.931 294.496C256.931 293.848 257.171 293.324 257.651 292.924C258.139 292.524 258.803 292.304 259.643 292.264V291.064H260.483V292.3C262.227 292.468 263.127 293.348 263.183 294.94H262.151C262.111 294.42 261.959 294.02 261.695 293.74C261.439 293.46 261.035 293.284 260.483 293.212V296.188L260.735 296.248C261.679 296.456 262.359 296.756 262.775 297.148C263.191 297.532 263.399 298.044 263.399 298.684ZM257.975 294.496C257.975 294.896 258.095 295.208 258.335 295.432C258.575 295.648 259.011 295.836 259.643 295.996V293.176C259.099 293.208 258.683 293.34 258.395 293.572C258.115 293.796 257.975 294.104 257.975 294.496ZM260.483 297.184V300.268C261.731 300.18 262.355 299.652 262.355 298.684C262.355 298.3 262.211 297.996 261.923 297.772C261.643 297.54 261.163 297.344 260.483 297.184ZM269.713 300.04C269.193 300.808 268.421 301.192 267.397 301.192C266.365 301.192 265.593 300.808 265.081 300.04C264.561 299.264 264.301 298.16 264.301 296.728C264.301 295.296 264.561 294.192 265.081 293.416C265.593 292.648 266.365 292.264 267.397 292.264C268.421 292.264 269.193 292.648 269.713 293.416C270.233 294.192 270.493 295.296 270.493 296.728C270.493 298.16 270.233 299.264 269.713 300.04ZM267.397 293.176C266.037 293.176 265.357 294.36 265.357 296.728C265.357 299.096 266.037 300.28 267.397 300.28C268.757 300.28 269.437 299.096 269.437 296.728C269.437 294.36 268.757 293.176 267.397 293.176ZM272.25 301H271.038V299.8H272.25V301ZM274.768 292.456H275.584V301H274.576V294.628H272.632V293.836L272.824 293.824C273.432 293.784 273.884 293.664 274.18 293.464C274.476 293.264 274.672 292.928 274.768 292.456ZM278.061 300.088H282.573V301H276.933L276.957 300.532C277.005 299.828 277.165 299.224 277.437 298.72C277.709 298.216 278.169 297.776 278.817 297.4L279.897 296.776C280.441 296.456 280.825 296.144 281.049 295.84C281.281 295.536 281.397 295.168 281.397 294.736C281.397 294.264 281.245 293.888 280.941 293.608C280.645 293.32 280.233 293.176 279.705 293.176C278.513 293.176 277.917 293.788 277.917 295.012H276.921C276.913 294.14 277.157 293.464 277.653 292.984C278.149 292.504 278.841 292.264 279.729 292.264C280.537 292.264 281.193 292.492 281.697 292.948C282.201 293.42 282.453 294.016 282.453 294.736C282.453 295.84 281.805 296.768 280.509 297.52L279.597 298.048C279.069 298.368 278.689 298.68 278.457 298.984C278.225 299.28 278.093 299.648 278.061 300.088ZM288.78 300.04C288.26 300.808 287.488 301.192 286.464 301.192C285.432 301.192 284.66 300.808 284.148 300.04C283.628 299.264 283.368 298.16 283.368 296.728C283.368 295.296 283.628 294.192 284.148 293.416C284.66 292.648 285.432 292.264 286.464 292.264C287.488 292.264 288.26 292.648 288.78 293.416C289.3 294.192 289.56 295.296 289.56 296.728C289.56 298.16 289.3 299.264 288.78 300.04ZM286.464 293.176C285.104 293.176 284.424 294.36 284.424 296.728C284.424 299.096 285.104 300.28 286.464 300.28C287.824 300.28 288.504 299.096 288.504 296.728C288.504 294.36 287.824 293.176 286.464 293.176ZM296.057 300.04C295.537 300.808 294.765 301.192 293.741 301.192C292.709 301.192 291.937 300.808 291.425 300.04C290.905 299.264 290.645 298.16 290.645 296.728C290.645 295.296 290.905 294.192 291.425 293.416C291.937 292.648 292.709 292.264 293.741 292.264C294.765 292.264 295.537 292.648 296.057 293.416C296.577 294.192 296.837 295.296 296.837 296.728C296.837 298.16 296.577 299.264 296.057 300.04ZM293.741 293.176C292.381 293.176 291.701 294.36 291.701 296.728C291.701 299.096 292.381 300.28 293.741 300.28C295.101 300.28 295.781 299.096 295.781 296.728C295.781 294.36 295.101 293.176 293.741 293.176ZM303.334 300.04C302.814 300.808 302.042 301.192 301.018 301.192C299.986 301.192 299.214 300.808 298.702 300.04C298.182 299.264 297.922 298.16 297.922 296.728C297.922 295.296 298.182 294.192 298.702 293.416C299.214 292.648 299.986 292.264 301.018 292.264C302.042 292.264 302.814 292.648 303.334 293.416C303.854 294.192 304.114 295.296 304.114 296.728C304.114 298.16 303.854 299.264 303.334 300.04ZM301.018 293.176C299.658 293.176 298.978 294.36 298.978 296.728C298.978 299.096 299.658 300.28 301.018 300.28C302.378 300.28 303.058 299.096 303.058 296.728C303.058 294.36 302.378 293.176 301.018 293.176Z" fill="#77868B"/>
<g clip-path="url(#clip1_49_6916)">
<line x1="617" y1="350.5" x2="-4.37113e-08" y2="350.5" stroke="#E7ECEE"/>
<line x1="767" y1="249.5" x2="-4.37113e-08" y2="249.5" stroke="#E7ECEE"/>
<line x1="767" y1="283.5" x2="-4.37113e-08" y2="283.5" stroke="#E7ECEE"/>
<line x1="767" y1="317.5" x2="-4.37113e-08" y2="317.5" stroke="#E7ECEE"/>
<rect y="322" width="9.7022" height="29" fill="#16A853"/>
<rect x="11.0879" y="334" width="9.7022" height="17" fill="#FF3235"/>
<rect x="22.1775" y="318" width="9.7022" height="33" fill="#16A853"/>
<rect x="33.2656" y="326" width="9.7022" height="25" fill="#16A853"/>
<rect x="44.3525" y="322" width="9.7022" height="29" fill="#FF3235"/>
<rect x="55.4404" y="312" width="9.7022" height="39" fill="#16A853"/>
<rect x="66.5293" y="334" width="9.7022" height="17" fill="#16A853"/>
<rect x="77.6184" y="341" width="9.7022" height="10" fill="#16A853"/>
<rect x="88.707" y="334" width="9.7022" height="17" fill="#16A853"/>
<rect x="99.7939" y="332" width="9.7022" height="19" fill="#16A853"/>
<rect x="110.882" y="322" width="9.7022" height="29" fill="#16A853"/>
<rect x="121.97" y="334" width="9.7022" height="17" fill="#16A853"/>
<rect x="133.059" y="337" width="9.7022" height="14" fill="#16A853"/>
<rect x="144.147" y="303" width="9.7022" height="48" fill="#16A853"/>
<rect x="155.235" y="307" width="9.7022" height="44" fill="#16A853"/>
<rect x="166.322" y="314" width="9.7022" height="37" fill="#FF3235"/>
<rect x="177.411" y="322" width="9.7022" height="29" fill="#FF3235"/>
<rect x="188.5" y="337" width="9.7022" height="14" fill="#16A853"/>
<rect x="199.588" y="328" width="9.7022" height="23" fill="#16A853"/>
<rect x="210.677" y="334" width="9.7022" height="17" fill="#16A853"/>
<rect x="221.765" y="322" width="9.7022" height="29" fill="#16A853"/>
<rect x="232.853" y="328" width="9.7022" height="23" fill="#16A853"/>
<rect x="243.941" y="318" width="9.7022" height="33" fill="#FF3235"/>
<rect x="255.029" y="326" width="9.7022" height="25" fill="#16A853"/>
<rect x="266.118" y="334" width="9.7022" height="17" fill="#16A853"/>
<rect x="277.206" y="338" width="9.7022" height="13" fill="#16A853"/>
<rect x="288.293" y="326" width="9.7022" height="25" fill="#16A853"/>
<rect x="299.381" y="320" width="9.7022" height="31" fill="#16A853"/>
</g>
<rect x="30.1111" y="151.726" width="1.32834" height="12.6443" fill="#16A853"/>
<rect x="27.4543" y="164.37" width="6.64172" height="67.7366" fill="#16A853"/>
<rect x="30.1111" y="232.107" width="1.32834" height="12.5286" fill="#16A853"/>
<rect x="19.2773" y="195.37" width="1.32834" height="12.6443" fill="#FF3235"/>
<rect x="16.4417" y="208.015" width="7" height="24" fill="#FF3235"/>
<rect x="19.2773" y="232.015" width="1.32834" height="12.5286" fill="#FF3235"/>
<rect width="1.32834" height="12.6443" transform="matrix(1 0 0 -1 7.36255 220.543)" fill="#16A853"/>
<rect width="7" height="24" transform="matrix(1 0 0 -1 4.52686 207.899)" fill="#16A853"/>
<rect width="1.32834" height="12.5286" transform="matrix(1 0 0 -1 7.36255 183.899)" fill="#16A853"/>
<rect x="163.27" y="69.4734" width="1.32834" height="5.44557" fill="#16A853"/>
<rect x="160.613" y="74.9189" width="6.64172" height="124.188" fill="#16A853"/>
<rect x="163.27" y="199.107" width="1.32834" height="3.86471" fill="#16A853"/>
<rect x="207.655" y="87.406" width="1.32834" height="5.44557" fill="#16A853"/>
<rect x="204.999" y="92.8516" width="6.64172" height="96.9573" fill="#16A853"/>
<rect x="207.655" y="189.809" width="1.32834" height="3.86471" fill="#16A853"/>
<rect x="218.752" y="65.9575" width="1.32834" height="5.44557" fill="#16A853"/>
<rect x="216.095" y="71.4031" width="6.64172" height="96.9573" fill="#16A853"/>
<rect x="218.752" y="168.36" width="1.32834" height="3.86471" fill="#16A853"/>
<rect x="141.077" y="181.054" width="1.32834" height="12.6443" fill="#16A853"/>
<rect x="138.42" y="193.698" width="6.64172" height="67.8112" fill="#16A853"/>
<rect x="141.077" y="261.51" width="1.32834" height="12.5286" fill="#16A853"/>
<rect x="152.174" y="130.577" width="1.32834" height="12.6443" fill="#16A853"/>
<rect x="149.517" y="143.221" width="6.64172" height="67.8112" fill="#16A853"/>
<rect x="152.174" y="211.032" width="1.32834" height="12.5286" fill="#16A853"/>
<rect x="41.207" y="155.338" width="1.32834" height="12.6443" fill="#16A853"/>
<rect x="38.5503" y="167.982" width="6.64172" height="14.0132" fill="#16A853"/>
<rect x="41.207" y="181.995" width="1.32834" height="12.5286" fill="#16A853"/>
<rect x="63.3999" y="263.411" width="1.32834" height="5.11966" fill="#16A853"/>
<rect x="60.7432" y="268.531" width="6.64172" height="12.519" fill="#16A853"/>
<rect x="63.3999" y="281.05" width="1.32834" height="4.94318" fill="#16A853"/>
<rect x="74.4968" y="258.469" width="1.32834" height="5.11966" fill="#16A853"/>
<rect x="71.8401" y="263.588" width="6.64172" height="12.519" fill="#16A853"/>
<rect x="74.4968" y="276.107" width="1.32834" height="4.94318" fill="#16A853"/>
<rect x="85.594" y="254.68" width="1.32834" height="5.11966" fill="#16A853"/>
<rect x="82.9373" y="259.8" width="6.64172" height="12.519" fill="#16A853"/>
<rect x="85.594" y="272.319" width="1.32834" height="4.94318" fill="#16A853"/>
<rect x="96.6897" y="251.609" width="1.32834" height="5.11966" fill="#16A853"/>
<rect x="94.033" y="256.729" width="6.64172" height="12.519" fill="#16A853"/>
<rect x="96.6897" y="269.248" width="1.32834" height="4.94318" fill="#16A853"/>
<rect x="118.884" y="251.277" width="1.32834" height="5.11966" fill="#16A853"/>
<rect x="116.227" y="256.396" width="6.64172" height="12.519" fill="#16A853"/>
<rect x="118.884" y="268.915" width="1.32834" height="4.94318" fill="#16A853"/>
<rect x="229.849" y="76.115" width="1.32834" height="5.11966" fill="#16A853"/>
<rect x="227.192" y="81.2346" width="6.64172" height="12.519" fill="#16A853"/>
<rect x="229.849" y="93.7537" width="1.32834" height="4.94318" fill="#16A853"/>
<rect x="129.98" y="254.169" width="1.32834" height="5.11966" fill="#16A853"/>
<rect x="127.323" y="259.288" width="6.64172" height="12.519" fill="#16A853"/>
<rect x="129.98" y="271.807" width="1.32834" height="4.94318" fill="#16A853"/>
<rect x="107.787" y="224.889" width="1.32834" height="5.11966" fill="#16A853"/>
<rect x="105.13" y="230.009" width="6.64172" height="33.7725" fill="#16A853"/>
<rect x="107.787" y="263.781" width="1.32834" height="4.94318" fill="#16A853"/>
<rect x="52.304" y="158.472" width="1.32834" height="12.6443" fill="#FF3235"/>
<rect x="49.6472" y="171.117" width="6.64172" height="105.005" fill="#FF3235"/>
<rect x="52.304" y="276.122" width="1.32834" height="12.5286" fill="#FF3235"/>
<rect x="174.365" y="74.0388" width="1.32834" height="4.43274" fill="#FF3235"/>
<rect x="171.708" y="78.4717" width="6.64172" height="40.6196" fill="#FF3235"/>
<rect x="174.365" y="119.091" width="1.32834" height="6.08887" fill="#FF3235"/>
<rect x="185.462" y="102.834" width="1.32834" height="4.43274" fill="#FF3235"/>
<rect x="182.806" y="107.267" width="6.64172" height="40.6196" fill="#FF3235"/>
<rect x="185.462" y="147.887" width="1.32834" height="6.08887" fill="#FF3235"/>
<rect x="196.559" y="142.557" width="1.32834" height="4.43274" fill="#FF3235"/>
<rect x="193.902" y="146.99" width="6.64172" height="40.6196" fill="#FF3235"/>
<rect x="196.559" y="187.61" width="1.32834" height="6.08887" fill="#FF3235"/>
</g>
<defs>
<clipPath id="clip0_49_6916">
<rect width="305" height="374" fill="white"/>
</clipPath>
<clipPath id="clip1_49_6916">
<rect width="819" height="109" fill="white" transform="translate(0 242)"/>
</clipPath>
</defs>
</svg>
