<svg width="104" height="104" viewBox="0 0 104 104" fill="none" xmlns="http://www.w3.org/2000/svg">
<g clip-path="url(#clip0_901_1404)">
<rect width="104" height="104" rx="52" fill="#FFF3E2"/>
<path d="M52.0002 21.8333C40.4285 21.8333 31.021 31.2408 31.021 42.8125C31.021 54.1633 39.8985 63.35 51.4702 63.7475C51.8235 63.7033 52.1768 63.7033 52.4418 63.7475C52.5302 63.7475 52.5743 63.7475 52.6627 63.7475C52.7068 63.7475 52.7068 63.7475 52.751 63.7475C64.0577 63.35 72.9352 54.1633 72.9793 42.8125C72.9793 31.2408 63.5718 21.8333 52.0002 21.8333Z" fill="#E59572"/>
<path d="M74.4367 75.4958C62.1142 67.2808 42.0184 67.2808 29.6076 75.4958C23.9984 79.25 20.9067 84.3292 20.9067 89.7617C20.9067 95.1942 23.9984 100.229 29.5634 103.939C35.7467 108.091 43.8734 110.167 52.0001 110.167C60.1267 110.167 68.2534 108.091 74.4367 103.939C80.0017 100.185 83.0934 95.15 83.0934 89.6734C83.0492 84.2409 80.0017 79.2058 74.4367 75.4958Z" fill="#E59572"/>
</g>
<defs>
<clipPath id="clip0_901_1404">
<rect width="104" height="104" rx="52" fill="white"/>
</clipPath>
</defs>
</svg>
