<svg width="74" height="27" viewBox="0 0 74 27" fill="none" xmlns="http://www.w3.org/2000/svg">
<path fill-rule="evenodd" clip-rule="evenodd" d="M1.4314 12.9998L1.4314 6.31071C1.4314 6.31071 5.44118 9.36186 6.13152 9.27037C9.85688 8.77662 14.2983 5.73452 16.3804 5.73452C18.4626 5.73452 25.1931 8.26606 28.1525 8.26606C31.1118 8.26606 36.7694 1.11987 39.0324 1.11987C41.2954 1.11987 45.5916 6.31071 47.6836 6.31071C49.7757 6.31071 56.2662 4.26124 58.3551 4.26124C60.4441 4.26124 65.8405 5.73452 67.9295 5.73452C68.6802 5.73452 73.5 4.75615 73.5 4.75615V12.9998H1.4314Z" fill="url(#paint0_linear_20_1248)"/>
<path d="M1.4314 6.19687C1.4314 6.19687 4.65219 9.15997 6.47968 9.15997C8.30717 9.15997 14.2983 5.62002 16.3804 5.62002C18.4626 5.62002 25.1931 8.1545 28.1525 8.1545C31.1118 8.1545 36.7694 1 39.0324 1C41.2954 1 45.5916 6.19687 47.6836 6.19687C49.7756 6.19687 56.2662 4.14502 58.3551 4.14502C60.4441 4.14502 65.8405 5.62002 67.9295 5.62002C70.0184 5.62002 73.5 4.6405 73.5 4.6405" stroke="#FF3235" stroke-width="1.5"/>
<path d="M5.2614 17.5V25H3.9414V17.9L4.6614 18.54L1.5214 19.09V18.04L4.2714 17.5H5.2614ZM10.4084 17.36C11.5218 17.36 12.3818 17.54 12.9884 17.9C13.5951 18.26 13.8984 18.7633 13.8984 19.41C13.8984 20.0033 13.6218 20.46 13.0684 20.78C12.5151 21.1 11.7418 21.25 10.7484 21.23V21.02C11.8418 20.96 12.6884 21.0967 13.2884 21.43C13.8884 21.7633 14.1884 22.2667 14.1884 22.94C14.1884 23.64 13.8618 24.1833 13.2084 24.57C12.5551 24.95 11.6218 25.14 10.4084 25.14C9.20176 25.14 8.26843 24.95 7.60843 24.57C6.95509 24.1833 6.62843 23.64 6.62843 22.94C6.62843 22.2667 6.92843 21.7633 7.52843 21.43C8.13509 21.09 8.98176 20.9533 10.0684 21.02V21.23C9.08176 21.25 8.30843 21.1 7.74843 20.78C7.19509 20.46 6.91843 20.0033 6.91843 19.41C6.91843 18.7633 7.22176 18.26 7.82843 17.9C8.43509 17.54 9.29509 17.36 10.4084 17.36ZM10.4084 24.08C11.2018 24.08 11.8084 23.98 12.2284 23.78C12.6484 23.5733 12.8584 23.27 12.8584 22.87C12.8584 22.4567 12.6484 22.1533 12.2284 21.96C11.8084 21.7667 11.2018 21.67 10.4084 21.67C9.61509 21.67 9.00843 21.7667 8.58843 21.96C8.16843 22.1533 7.95843 22.4567 7.95843 22.87C7.95843 23.27 8.16843 23.5733 8.58843 23.78C9.00843 23.98 9.61509 24.08 10.4084 24.08ZM10.4084 20.63C10.8684 20.63 11.2584 20.59 11.5784 20.51C11.9051 20.43 12.1518 20.3067 12.3184 20.14C12.4918 19.9733 12.5784 19.7667 12.5784 19.52C12.5784 19.1667 12.3884 18.8967 12.0084 18.71C11.6351 18.5167 11.1018 18.42 10.4084 18.42C9.72176 18.42 9.18843 18.5167 8.80843 18.71C8.42843 18.8967 8.23843 19.1667 8.23843 19.52C8.23843 19.7667 8.32176 19.9733 8.48843 20.14C8.66176 20.3067 8.90843 20.43 9.22843 20.51C9.55509 20.59 9.94843 20.63 10.4084 20.63ZM15.9636 25.08C15.8103 25.08 15.6703 25.0433 15.5436 24.97C15.4236 24.8967 15.3269 24.8 15.2536 24.68C15.1803 24.5533 15.1436 24.4133 15.1436 24.26C15.1436 24.1067 15.1803 23.97 15.2536 23.85C15.3269 23.7233 15.4236 23.6233 15.5436 23.55C15.6703 23.4767 15.8103 23.44 15.9636 23.44C16.1169 23.44 16.2536 23.4767 16.3736 23.55C16.5003 23.6233 16.6003 23.7233 16.6736 23.85C16.7469 23.97 16.7836 24.1067 16.7836 24.26C16.7836 24.4133 16.7469 24.5533 16.6736 24.68C16.6003 24.8 16.5003 24.8967 16.3736 24.97C16.2536 25.0433 16.1169 25.08 15.9636 25.08ZM20.9273 25.14C20.3407 25.14 19.814 25.05 19.3473 24.87C18.8873 24.69 18.5107 24.4433 18.2173 24.13C17.9307 23.8167 17.7473 23.4633 17.6673 23.07H18.9673C19.074 23.3433 19.274 23.5767 19.5673 23.77C19.8607 23.9567 20.304 24.05 20.8973 24.05C21.504 24.05 21.994 23.94 22.3673 23.72C22.7473 23.4933 23.024 23.1733 23.1973 22.76C23.3773 22.3467 23.4673 21.8567 23.4673 21.29C23.4673 20.69 23.3673 20.18 23.1673 19.76C22.9673 19.3333 22.6707 19.01 22.2773 18.79C21.884 18.5633 21.3973 18.45 20.8173 18.45C20.3773 18.45 20.0073 18.5133 19.7073 18.64C19.414 18.76 19.1907 18.93 19.0373 19.15C18.8907 19.3633 18.8173 19.61 18.8173 19.89C18.8173 20.1433 18.884 20.3733 19.0173 20.58C19.1507 20.7867 19.3573 20.95 19.6373 21.07C19.9173 21.19 20.2707 21.25 20.6973 21.25C21.2773 21.25 21.814 21.11 22.3073 20.83C22.8007 20.55 23.2107 20.1867 23.5373 19.74L24.0973 20.15C23.884 20.5567 23.6007 20.9267 23.2473 21.26C22.894 21.5867 22.4807 21.85 22.0073 22.05C21.5407 22.2433 21.0173 22.34 20.4373 22.34C19.844 22.34 19.324 22.2433 18.8773 22.05C18.4373 21.85 18.094 21.57 17.8473 21.21C17.6073 20.8433 17.4873 20.4167 17.4873 19.93C17.4873 19.4233 17.624 18.9767 17.8973 18.59C18.1707 18.2033 18.5573 17.9033 19.0573 17.69C19.5573 17.47 20.144 17.36 20.8173 17.36C21.6773 17.36 22.4007 17.5267 22.9873 17.86C23.574 18.1867 24.0173 18.6433 24.3173 19.23C24.6173 19.81 24.764 20.4833 24.7573 21.25C24.764 22.01 24.6173 22.6833 24.3173 23.27C24.024 23.85 23.5907 24.3067 23.0173 24.64C22.4507 24.9733 21.754 25.14 20.9273 25.14ZM31.6493 17.5V25H30.3293V18.05H30.8693L26.5693 22.83L26.5393 22.36H33.0193V23.42H25.4993V22.47L29.9693 17.5H31.6493ZM34.3651 25L38.5451 18.21L38.5351 18.6H33.0351V17.5H39.7051V18.57L35.7751 25H34.3651ZM42.6961 21.81C42.2161 21.81 41.7928 21.72 41.4261 21.54C41.0594 21.3533 40.7728 21.0933 40.5661 20.76C40.3594 20.4267 40.2561 20.0433 40.2561 19.61C40.2561 19.1767 40.3594 18.7967 40.5661 18.47C40.7728 18.1367 41.0594 17.88 41.4261 17.7C41.7928 17.5133 42.2161 17.42 42.6961 17.42C43.1828 17.42 43.6061 17.5133 43.9661 17.7C44.3328 17.88 44.6194 18.1367 44.8261 18.47C45.0328 18.7967 45.1361 19.1767 45.1361 19.61C45.1361 20.0433 45.0328 20.4267 44.8261 20.76C44.6194 21.0933 44.3328 21.3533 43.9661 21.54C43.6061 21.72 43.1828 21.81 42.6961 21.81ZM42.6961 20.98C43.1228 20.98 43.4594 20.86 43.7061 20.62C43.9528 20.3733 44.0761 20.0367 44.0761 19.61C44.0761 19.19 43.9528 18.8567 43.7061 18.61C43.4594 18.3633 43.1228 18.24 42.6961 18.24C42.2694 18.24 41.9328 18.3633 41.6861 18.61C41.4394 18.8567 41.3161 19.19 41.3161 19.61C41.3161 20.0367 41.4394 20.3733 41.6861 20.62C41.9328 20.86 42.2694 20.98 42.6961 20.98ZM49.4061 25.12C48.9261 25.12 48.5028 25.03 48.1361 24.85C47.7694 24.6633 47.4828 24.4033 47.2761 24.07C47.0694 23.7367 46.9661 23.3533 46.9661 22.92C46.9661 22.4867 47.0694 22.1067 47.2761 21.78C47.4828 21.4467 47.7694 21.19 48.1361 21.01C48.5028 20.8233 48.9261 20.73 49.4061 20.73C49.8928 20.73 50.3161 20.8233 50.6761 21.01C51.0428 21.19 51.3294 21.4467 51.5361 21.78C51.7428 22.1067 51.8461 22.4867 51.8461 22.92C51.8461 23.3533 51.7428 23.7367 51.5361 24.07C51.3294 24.4033 51.0428 24.6633 50.6761 24.85C50.3161 25.03 49.8928 25.12 49.4061 25.12ZM49.4061 24.29C49.8328 24.29 50.1694 24.17 50.4161 23.93C50.6628 23.6833 50.7861 23.3467 50.7861 22.92C50.7861 22.5 50.6628 22.1667 50.4161 21.92C50.1694 21.6733 49.8328 21.55 49.4061 21.55C48.9794 21.55 48.6428 21.6733 48.3961 21.92C48.1494 22.1667 48.0261 22.5 48.0261 22.92C48.0261 23.3467 48.1494 23.6833 48.3961 23.93C48.6428 24.17 48.9794 24.29 49.4061 24.29ZM47.5761 17.5H48.6061L44.5361 25H43.5161L47.5761 17.5Z" fill="#FF3235"/>
<defs>
<linearGradient id="paint0_linear_20_1248" x1="2.15685" y1="-4.67901" x2="2.15685" y2="14.7364" gradientUnits="userSpaceOnUse">
<stop stop-color="#FF3235"/>
<stop offset="1" stop-color="white" stop-opacity="0.01"/>
</linearGradient>
</defs>
</svg>
