<svg width="122" height="30" viewBox="0 0 122 30" fill="none" xmlns="http://www.w3.org/2000/svg">
<path d="M41.5587 14.2556H47.6948C48.58 14.2556 49.2774 14.0544 49.7871 13.6521C50.3102 13.2497 50.5717 12.6998 50.5717 12.0024C50.5717 11.2915 50.3102 10.7416 49.7871 10.3526C49.2774 9.95027 48.58 9.74908 47.6948 9.74908H41.1764L42.3634 8.26032V22.5444H39.7078V7.45558H47.9362C48.9958 7.45558 49.9212 7.65006 50.7126 8.03901C51.5173 8.41456 52.141 8.94434 52.5836 9.62837C53.0396 10.299 53.2676 11.0903 53.2676 12.0024C53.2676 12.8876 53.0396 13.6722 52.5836 14.3562C52.141 15.0268 51.5173 15.5566 50.7126 15.9456C49.9212 16.3211 48.9958 16.5089 47.9362 16.5089H41.5587V14.2556ZM44.5362 15.4828H47.6546L53.6499 22.5444H50.4711L44.5362 15.4828Z" fill="#FFF3E2"/>
<path d="M63.3407 22.8261C61.6239 22.8261 60.115 22.4975 58.814 21.8403C57.513 21.1831 56.5004 20.271 55.7761 19.1042C55.0519 17.9239 54.6897 16.5558 54.6897 15C54.6897 13.4442 55.0519 12.0828 55.7761 10.916C56.5004 9.73567 57.513 8.81693 58.814 8.15972C60.115 7.50252 61.6239 7.17392 63.3407 7.17392C65.0574 7.17392 66.5663 7.50252 67.8673 8.15972C69.1683 8.81693 70.1809 9.73567 70.9052 10.916C71.6295 12.0828 71.9916 13.4442 71.9916 15C71.9916 16.5558 71.6295 17.9239 70.9052 19.1042C70.1809 20.271 69.1683 21.1831 67.8673 21.8403C66.5663 22.4975 65.0574 22.8261 63.3407 22.8261ZM63.3407 20.4521C64.5612 20.4521 65.6141 20.2308 66.4993 19.7882C67.3845 19.3456 68.0685 18.7152 68.5514 17.8971C69.0476 17.0789 69.2957 16.1132 69.2957 15C69.2957 13.8868 69.0476 12.9211 68.5514 12.1029C68.0685 11.2848 67.3845 10.6544 66.4993 10.2118C65.6141 9.7692 64.5612 9.5479 63.3407 9.5479C62.1336 9.5479 61.0807 9.7692 60.1821 10.2118C59.2969 10.6544 58.6061 11.2848 58.1099 12.1029C57.627 12.9211 57.3856 13.8868 57.3856 15C57.3856 16.1132 57.627 17.0789 58.1099 17.8971C58.6061 18.7152 59.2969 19.3456 60.1821 19.7882C61.0807 20.2308 62.1336 20.4521 63.3407 20.4521Z" fill="#FFF3E2"/>
<path d="M90.083 16.5692C89.9489 17.8032 89.513 18.8963 88.7753 19.8486C88.051 20.7874 87.0987 21.5184 85.9185 22.0415C84.7382 22.5645 83.3902 22.8261 81.8746 22.8261C80.1847 22.8261 78.7026 22.4975 77.4285 21.8403C76.1543 21.1831 75.1618 20.271 74.4509 19.1042C73.7401 17.9239 73.3847 16.5558 73.3847 15C73.3847 13.4442 73.7401 12.0828 74.4509 10.916C75.1618 9.73567 76.1543 8.81693 77.4285 8.15972C78.7026 7.50252 80.1847 7.17392 81.8746 7.17392C83.3902 7.17392 84.7382 7.43546 85.9185 7.95854C87.0987 8.48162 88.051 9.21259 88.7753 10.1515C89.513 11.0903 89.9489 12.1834 90.083 13.4308H87.4072C87.2597 12.626 86.9378 11.9353 86.4415 11.3586C85.9587 10.7818 85.3283 10.3392 84.5504 10.0307C83.7725 9.70885 82.8739 9.5479 81.8545 9.5479C80.6742 9.5479 79.6482 9.7692 78.7764 10.2118C77.918 10.6544 77.2541 11.2848 76.7847 12.1029C76.3152 12.9211 76.0805 13.8868 76.0805 15C76.0805 16.1132 76.3152 17.0789 76.7847 17.8971C77.2541 18.7152 77.918 19.3456 78.7764 19.7882C79.6482 20.2308 80.6742 20.4521 81.8545 20.4521C82.8739 20.4521 83.7725 20.2979 84.5504 19.9894C85.3283 19.6809 85.9587 19.2383 86.4415 18.6616C86.9378 18.0714 87.2597 17.374 87.4072 16.5692H90.083Z" fill="#FFF3E2"/>
<path d="M92.1171 22.5444V7.45558H94.7728V20.3113L93.968 19.8083L104.068 7.45558H106.944L94.4911 22.5444H92.1171ZM99.2994 14.9598L101.17 13.129L107.166 22.5444H104.128L99.2994 14.9598Z" fill="#FFF3E2"/>
<path d="M107.096 17.6355H109.792C109.873 18.2391 110.121 18.7689 110.537 19.2249C110.966 19.6809 111.529 20.0363 112.226 20.2912C112.924 20.5326 113.729 20.6533 114.641 20.6533C115.995 20.6533 117.068 20.4454 117.86 20.0296C118.651 19.6004 119.047 19.0237 119.047 18.2994C119.047 17.7093 118.819 17.2667 118.363 16.9716C117.907 16.6765 117.082 16.4552 115.888 16.3077L112.629 15.8852C110.805 15.6438 109.477 15.1945 108.645 14.5373C107.827 13.8667 107.418 12.9211 107.418 11.7006C107.418 10.7751 107.693 9.97709 108.243 9.30648C108.806 8.62245 109.598 8.09937 110.617 7.73724C111.636 7.36169 112.83 7.17392 114.198 7.17392C115.553 7.17392 116.753 7.3751 117.799 7.77747C118.845 8.17984 119.677 8.74316 120.294 9.46742C120.924 10.1783 121.266 11.0165 121.32 11.9822H118.624C118.557 11.4457 118.329 10.983 117.94 10.5941C117.565 10.2051 117.055 9.90332 116.411 9.68873C115.767 9.46072 115.01 9.34671 114.138 9.34671C112.904 9.34671 111.918 9.5479 111.18 9.95027C110.443 10.3526 110.074 10.9025 110.074 11.6C110.074 12.1365 110.288 12.5523 110.718 12.8473C111.16 13.129 111.925 13.3436 113.011 13.4911L116.311 13.9538C117.665 14.1416 118.731 14.3964 119.509 14.7183C120.301 15.0268 120.864 15.4493 121.199 15.9858C121.535 16.5089 121.702 17.1862 121.702 18.0178C121.702 18.9835 121.407 19.8284 120.817 20.5527C120.227 21.277 119.395 21.8403 118.322 22.2426C117.263 22.6316 116.022 22.8261 114.6 22.8261C113.152 22.8261 111.871 22.6115 110.758 22.1823C109.658 21.7397 108.786 21.1294 108.142 20.3515C107.499 19.5736 107.15 18.6683 107.096 17.6355Z" fill="#FFF3E2"/>
<path fill-rule="evenodd" clip-rule="evenodd" d="M11.6408 0.274525L19.4374 0L20.156 0.26555L30.3295 9.613L30.6446 10.2054L31.6522 16.861L31.8436 17.9379L31.6876 18.4395L31.5379 18.8888L20.3345 29.172L19.1678 29.5985L17.9634 30L7.79195 28.4251L7.16414 28.064L0.162428 19.4415L0 18.4528L3.30639 9.57097L3.35049 9.46363L3.41902 9.34426L9.49035 1.09389L10.5018 0.674512L11.6367 0.269799L11.6408 0.274525ZM13.4118 2.23271L17.8572 7.39268L23.5527 13.9143L29.2113 15.9203L29.4816 16.0133L28.7013 10.8593L19.0947 2.03261L13.4118 2.23271ZM23.3235 16.0283L28.5451 17.8265L29.3869 18.1249L20.0275 26.7915L18.5055 21.1033L23.3235 16.0283ZM21.5787 14.806L16.3318 8.71577L10.9426 2.54491L5.63006 9.74835L17.2923 19.3321L21.5787 14.806ZM4.69383 11.632L2.09372 18.6166L8.48717 26.49L18.2449 28.0158L16.4748 21.332L4.69383 11.632Z" fill="#FFF3E2"/>
</svg>
