<svg width="122" height="30" viewBox="0 0 122 30" fill="none" xmlns="http://www.w3.org/2000/svg">
<path d="M41.7075 14.2556H47.8436C48.7288 14.2556 49.4263 14.0545 49.9359 13.6521C50.459 13.2497 50.7205 12.6998 50.7205 12.0024C50.7205 11.2915 50.459 10.7416 49.9359 10.3527C49.4263 9.9503 48.7288 9.74911 47.8436 9.74911H41.3252L42.5122 8.26035V22.5445H39.8566V7.45561H48.085C49.1446 7.45561 50.07 7.65009 50.8614 8.03904C51.6661 8.41459 52.2898 8.94438 52.7324 9.6284C53.1884 10.299 53.4164 11.0903 53.4164 12.0024C53.4164 12.8876 53.1884 13.6722 52.7324 14.3562C52.2898 15.0269 51.6661 15.5566 50.8614 15.9456C50.07 16.3211 49.1446 16.5089 48.085 16.5089H41.7075V14.2556ZM44.685 15.4829H47.8034L53.7987 22.5445H50.6199L44.685 15.4829Z" fill="#FFF3E2"/>
<path d="M63.4895 22.8261C61.7727 22.8261 60.2638 22.4975 58.9628 21.8403C57.6618 21.1831 56.6492 20.2711 55.9249 19.1042C55.2007 17.9239 54.8385 16.5559 54.8385 15C54.8385 13.4442 55.2007 12.0829 55.9249 10.916C56.6492 9.7357 57.6618 8.81696 58.9628 8.15976C60.2638 7.50255 61.7727 7.17395 63.4895 7.17395C65.2063 7.17395 66.7151 7.50255 68.0161 8.15976C69.3171 8.81696 70.3298 9.7357 71.054 10.916C71.7783 12.0829 72.1404 13.4442 72.1404 15C72.1404 16.5559 71.7783 17.9239 71.054 19.1042C70.3298 20.2711 69.3171 21.1831 68.0161 21.8403C66.7151 22.4975 65.2063 22.8261 63.4895 22.8261ZM63.4895 20.4521C64.71 20.4521 65.7629 20.2308 66.6481 19.7882C67.5333 19.3456 68.2173 18.7152 68.7002 17.8971C69.1964 17.0789 69.4445 16.1133 69.4445 15C69.4445 13.8868 69.1964 12.9211 68.7002 12.103C68.2173 11.2848 67.5333 10.6544 66.6481 10.2118C65.7629 9.76923 64.71 9.54793 63.4895 9.54793C62.2824 9.54793 61.2295 9.76923 60.3309 10.2118C59.4457 10.6544 58.7549 11.2848 58.2587 12.103C57.7758 12.9211 57.5344 13.8868 57.5344 15C57.5344 16.1133 57.7758 17.0789 58.2587 17.8971C58.7549 18.7152 59.4457 19.3456 60.3309 19.7882C61.2295 20.2308 62.2824 20.4521 63.4895 20.4521Z" fill="#FFF3E2"/>
<path d="M90.2318 16.5693C90.0977 17.8032 89.6618 18.8963 88.9241 19.8486C88.1998 20.7874 87.2476 21.5184 86.0673 22.0415C84.887 22.5646 83.539 22.8261 82.0235 22.8261C80.3335 22.8261 78.8514 22.4975 77.5773 21.8403C76.3031 21.1831 75.3106 20.2711 74.5997 19.1042C73.8889 17.9239 73.5335 16.5559 73.5335 15C73.5335 13.4442 73.8889 12.0829 74.5997 10.916C75.3106 9.7357 76.3031 8.81696 77.5773 8.15976C78.8514 7.50255 80.3335 7.17395 82.0235 7.17395C83.539 7.17395 84.887 7.43549 86.0673 7.95857C87.2476 8.48165 88.1998 9.21262 88.9241 10.1515C89.6618 11.0903 90.0977 12.1834 90.2318 13.4308H87.556C87.4085 12.6261 87.0866 11.9353 86.5903 11.3586C86.1075 10.7819 85.4771 10.3393 84.6992 10.0308C83.9213 9.70888 83.0227 9.54793 82.0033 9.54793C80.8231 9.54793 79.797 9.76923 78.9252 10.2118C78.0668 10.6544 77.4029 11.2848 76.9335 12.103C76.4641 12.9211 76.2293 13.8868 76.2293 15C76.2293 16.1133 76.4641 17.0789 76.9335 17.8971C77.4029 18.7152 78.0668 19.3456 78.9252 19.7882C79.797 20.2308 80.8231 20.4521 82.0033 20.4521C83.0227 20.4521 83.9213 20.2979 84.6992 19.9894C85.4771 19.6809 86.1075 19.2383 86.5903 18.6616C87.0866 18.0715 87.4085 17.374 87.556 16.5693H90.2318Z" fill="#FFF3E2"/>
<path d="M92.266 22.5445V7.45561H94.9216V20.3113L94.1169 19.8083L104.216 7.45561H107.093L94.6399 22.5445H92.266ZM99.4482 14.9598L101.319 13.129L107.315 22.5445H104.277L99.4482 14.9598Z" fill="#FFF3E2"/>
<path d="M107.245 17.6356H109.941C110.021 18.2391 110.27 18.7689 110.685 19.2249C111.115 19.6809 111.678 20.0364 112.375 20.2912C113.073 20.5326 113.877 20.6533 114.79 20.6533C116.144 20.6533 117.217 20.4454 118.008 20.0296C118.8 19.6005 119.195 19.0237 119.195 18.2995C119.195 17.7093 118.967 17.2667 118.511 16.9716C118.055 16.6766 117.231 16.4553 116.037 16.3077L112.778 15.8852C110.954 15.6438 109.626 15.1945 108.794 14.5373C107.976 13.8667 107.567 12.9211 107.567 11.7006C107.567 10.7752 107.842 9.97712 108.392 9.30651C108.955 8.62248 109.746 8.0994 110.766 7.73727C111.785 7.36172 112.979 7.17395 114.347 7.17395C115.702 7.17395 116.902 7.37514 117.948 7.7775C118.994 8.17987 119.826 8.74319 120.443 9.46746C121.073 10.1783 121.415 11.0166 121.469 11.9823H118.773C118.706 11.4458 118.478 10.983 118.089 10.5941C117.713 10.2051 117.204 9.90336 116.56 9.68876C115.916 9.46075 115.158 9.34675 114.287 9.34675C113.053 9.34675 112.067 9.54793 111.329 9.9503C110.591 10.3527 110.223 10.9026 110.223 11.6C110.223 12.1365 110.437 12.5523 110.866 12.8474C111.309 13.129 112.074 13.3436 113.16 13.4911L116.459 13.9539C117.814 14.1416 118.88 14.3965 119.658 14.7184C120.45 15.0269 121.013 15.4493 121.348 15.9858C121.683 16.5089 121.851 17.1862 121.851 18.0178C121.851 18.9835 121.556 19.8285 120.966 20.5527C120.376 21.277 119.544 21.8403 118.471 22.2427C117.412 22.6316 116.171 22.8261 114.749 22.8261C113.301 22.8261 112.02 22.6115 110.907 22.1823C109.807 21.7397 108.935 21.1295 108.291 20.3515C107.647 19.5736 107.299 18.6683 107.245 17.6356Z" fill="#FFF3E2"/>
<path fill-rule="evenodd" clip-rule="evenodd" d="M11.7896 0.274525L19.5862 0L20.3048 0.26555L30.4783 9.613L30.7934 10.2054L31.801 16.861L31.9924 17.9379L31.8364 18.4395L31.6867 18.8888L20.4833 29.172L19.3166 29.5985L18.1122 30L7.94075 28.4251L7.31294 28.064L0.311232 19.4415L0.148804 18.4528L3.45519 9.57097L3.49929 9.46363L3.56782 9.34426L9.63915 1.09389L10.6506 0.674512L11.7855 0.269799L11.7896 0.274525ZM13.5606 2.23271L18.006 7.39268L23.7015 13.9143L29.3601 15.9203L29.6304 16.0133L28.8501 10.8593L19.2435 2.03261L13.5606 2.23271ZM23.4723 16.0283L28.6939 17.8265L29.5357 18.1249L20.1763 26.7915L18.6543 21.1033L23.4723 16.0283ZM21.7275 14.806L16.4806 8.71577L11.0914 2.54491L5.77886 9.74835L17.4411 19.3321L21.7275 14.806ZM4.84263 11.632L2.24253 18.6166L8.63597 26.49L18.3937 28.0158L16.6237 21.332L4.84263 11.632Z" fill="#FFF3E2"/>
</svg>
