<svg width="20" height="20" viewBox="0 0 20 20" fill="none" xmlns="http://www.w3.org/2000/svg">
<path fill-rule="evenodd" clip-rule="evenodd" d="M7.31123 0.451509L12.208 0.273499L12.6594 0.44569L19.049 6.50688L19.247 6.89098L19.8798 11.2067L20 11.905L19.902 12.2303L19.808 12.5216L12.7715 19.1896L12.0387 19.4662L11.2822 19.7265L4.89389 18.7053L4.49958 18.4711L0.102016 12.88L0 12.2389L2.07664 6.47963L2.10434 6.41003L2.14738 6.33262L5.9606 0.98281L6.59585 0.710874L7.30864 0.448445L7.31123 0.451509ZM8.42352 1.72126L11.2156 5.06716L14.7927 9.29597L18.3467 10.5967L18.5165 10.6571L18.0264 7.31501L11.9928 1.59151L8.42352 1.72126ZM14.6488 10.6668L17.9283 11.8328L18.457 12.0263L12.5787 17.646L11.6227 13.9576L14.6488 10.6668ZM13.5529 9.87422L10.2575 5.92509L6.87273 1.9237L3.53607 6.59465L10.8608 12.8091L13.5529 9.87422ZM2.94805 7.81605L1.31501 12.3451L5.33053 17.4505L11.4591 18.4398L10.3474 14.1059L2.94805 7.81605Z" fill="#7A6966"/>
</svg>
