<svg width="24" height="24" viewBox="0 0 24 24" fill="none" xmlns="http://www.w3.org/2000/svg">
<rect x="0.5" y="0.500061" width="23" height="23" rx="3.5" fill="#FDFDFC"/>
<rect x="0.5" y="0.500061" width="23" height="23" rx="3.5" stroke="#F4F3F2"/>
<g clip-path="url(#clip0_658_818)">
<path d="M13.5 8.94006L13 11.0001H15.915C16.0702 11.0001 16.2234 11.0362 16.3622 11.1056C16.5011 11.1751 16.6219 11.2759 16.715 11.4001C16.8081 11.5243 16.8711 11.6684 16.8989 11.8212C16.9266 11.9739 16.9185 12.131 16.875 12.2801L15.71 16.2801C15.6494 16.4878 15.5231 16.6702 15.35 16.8001C15.1769 16.9299 14.9664 17.0001 14.75 17.0001H8C7.73478 17.0001 7.48043 16.8947 7.29289 16.7072C7.10536 16.5196 7 16.2653 7 16.0001V12.0001C7 11.7348 7.10536 11.4805 7.29289 11.293C7.48043 11.1054 7.73478 11.0001 8 11.0001H9.38C9.56604 11 9.74837 10.948 9.90648 10.8499C10.0646 10.7519 10.1922 10.6117 10.275 10.4451L12 7.00006C12.2358 7.00298 12.4679 7.05915 12.6789 7.16436C12.8899 7.26957 13.0745 7.42111 13.2187 7.60766C13.3629 7.79421 13.4632 8.01094 13.5119 8.24166C13.5606 8.47238 13.5565 8.71113 13.5 8.94006Z" fill="#E59572" stroke="#E59572" stroke-width="1.2" stroke-linecap="round" stroke-linejoin="round"/>
</g>
<defs>
<clipPath id="clip0_658_818">
<rect width="12" height="12" fill="white" transform="translate(6 6.00006)"/>
</clipPath>
</defs>
</svg>
