<svg width="78" height="78" viewBox="0 0 78 78" fill="none" xmlns="http://www.w3.org/2000/svg">
<rect width="78" height="78" rx="39" fill="#F4D6AE"/>
<path d="M58.593 30.692L34.593 54.692C34.384 54.9018 34.1356 55.0682 33.8621 55.1818C33.5886 55.2954 33.2954 55.3538 32.9993 55.3538C32.7031 55.3538 32.4099 55.2954 32.1364 55.1818C31.8629 55.0682 31.6145 54.9018 31.4055 54.692L20.9055 44.192C20.6962 43.9828 20.5302 43.7343 20.4169 43.4608C20.3037 43.1874 20.2454 42.8943 20.2454 42.5983C20.2454 42.3023 20.3037 42.0092 20.4169 41.7358C20.5302 41.4623 20.6962 41.2138 20.9055 41.0045C21.1148 40.7953 21.3633 40.6292 21.6367 40.516C21.9102 40.4027 22.2033 40.3444 22.4993 40.3444C22.7953 40.3444 23.0883 40.4027 23.3618 40.516C23.6353 40.6292 23.8837 40.7953 24.093 41.0045L33.0011 49.9127L55.4093 27.5083C55.8319 27.0856 56.4052 26.8481 57.003 26.8481C57.6008 26.8481 58.1741 27.0856 58.5968 27.5083C59.0194 27.931 59.2569 28.5043 59.2569 29.102C59.2569 29.6998 59.0194 30.2731 58.5968 30.6958L58.593 30.692Z" fill="#311E1A"/>
</svg>
