<svg width="20" height="14" viewBox="0 0 20 14" fill="none" xmlns="http://www.w3.org/2000/svg">
<path d="M17.5229 1.86238C16.1468 0.761464 14.4954 0.211006 12.7523 0.119263L12.4771 0.394492C14.0367 0.761465 15.4128 1.49541 16.6972 2.50458C15.1376 1.6789 13.3945 1.12844 11.5596 0.944951C11.0092 0.853208 10.5505 0.853208 10 0.853208C9.44954 0.853208 8.99083 0.853208 8.44037 0.944951C6.6055 1.12844 4.86239 1.6789 3.30275 2.50458C4.58716 1.49541 5.9633 0.761465 7.52294 0.394492L7.24771 0.119263C5.50459 0.211006 3.85321 0.761464 2.47706 1.86238C0.917431 4.79816 0.0917431 8.10091 0 11.4954C1.37615 12.9633 3.30275 13.8807 5.3211 13.8807C5.3211 13.8807 5.9633 13.1468 6.42202 12.5046C5.22936 12.2294 4.12844 11.5872 3.3945 10.578C4.0367 10.945 4.6789 11.3119 5.3211 11.5872C6.14679 11.9541 6.97248 12.1376 7.79817 12.3211C8.53211 12.4128 9.26606 12.5046 10 12.5046C10.7339 12.5046 11.4679 12.4128 12.2018 12.3211C13.0275 12.1376 13.8532 11.9541 14.6789 11.5872C15.3211 11.3119 15.9633 10.945 16.6055 10.578C15.8716 11.5872 14.7706 12.2294 13.578 12.5046C14.0367 13.1468 14.6789 13.8807 14.6789 13.8807C16.6972 13.8807 18.6239 12.9633 20 11.4954C19.9083 8.10091 19.0826 4.79816 17.5229 1.86238ZM6.97248 9.84403C6.05505 9.84403 5.22936 9.01835 5.22936 8.00917C5.22936 7 6.05505 6.17431 6.97248 6.17431C7.88991 6.17431 8.7156 7 8.7156 8.00917C8.7156 9.01835 7.88991 9.84403 6.97248 9.84403ZM13.0275 9.84403C12.1101 9.84403 11.2844 9.01835 11.2844 8.00917C11.2844 7 12.1101 6.17431 13.0275 6.17431C13.945 6.17431 14.7706 7 14.7706 8.00917C14.7706 9.01835 13.945 9.84403 13.0275 9.84403Z" fill="#7A6966"/>
</svg>
