<svg width="30" height="18" viewBox="0 0 30 18" fill="none" xmlns="http://www.w3.org/2000/svg">
<path d="M6.14393 3.51631C11.0343 -1.1721 18.9657 -1.1721 23.8561 3.51631L24.4442 4.07679C24.6918 4.31159 24.6918 4.6903 24.4442 4.9251L22.4323 6.85651C22.3085 6.97012 22.115 6.97012 21.9912 6.85651L21.1787 6.07637C17.7663 2.80433 12.2337 2.80433 8.82125 6.07637L7.9546 6.90953C7.8308 7.02314 7.63735 7.02314 7.51354 6.90953L5.49394 4.98569C5.24632 4.75089 5.24632 4.37219 5.49394 4.13739L6.14393 3.51631ZM28.0191 7.50789L29.8143 9.22723C30.0619 9.46202 30.0619 9.84073 29.8143 10.0755L21.7281 17.8239C21.4805 18.0587 21.0859 18.0587 20.846 17.8239L15.1122 12.3251C15.0503 12.2645 14.9497 12.2645 14.8878 12.3251L9.15399 17.8239C8.90637 18.0587 8.51174 18.0587 8.27186 17.8239L0.185711 10.0755C-0.0619035 9.84073 -0.0619035 9.46202 0.185711 9.22723L1.98091 7.50789C2.22853 7.27309 2.62316 7.27309 2.86304 7.50789L8.59685 13.0067C8.65876 13.0673 8.75935 13.0673 8.82125 13.0067L14.5551 7.50789C14.8027 7.27309 15.1973 7.27309 15.4372 7.50789L21.171 13.0067C21.2329 13.0673 21.3335 13.0673 21.3954 13.0067L27.1292 7.50789C27.3768 7.27309 27.7715 7.27309 28.0191 7.50789Z" fill="#3B99FC"/>
</svg>
