<svg width="20" height="14" viewBox="0 0 20 14" fill="none" xmlns="http://www.w3.org/2000/svg">
<path fill-rule="evenodd" clip-rule="evenodd" d="M17.8253 0.426717C18.682 0.657358 19.3574 1.33281 19.5881 2.18948C20.0164 3.75454 19.9999 7.01647 19.9999 7.01647C19.9999 7.01647 19.9999 10.2619 19.5881 11.827C19.3574 12.6837 18.682 13.3591 17.8253 13.5898C16.2602 14.0016 9.99996 14.0016 9.99996 14.0016C9.99996 14.0016 3.75616 14.0016 2.17462 13.5733C1.31795 13.3426 0.642501 12.6672 0.41186 11.8105C0 10.2619 0 7 0 7C0 7 0 3.75454 0.41186 2.18948C0.642501 1.33281 1.33443 0.640884 2.17462 0.410242C3.73969 -0.00161743 9.99996 -0.00161743 9.99996 -0.00161743C9.99996 -0.00161743 16.2602 -0.00161743 17.8253 0.426717ZM13.2124 7L8.00651 9.99834V4.00166L13.2124 7Z" fill="#7A6966"/>
</svg>
