<svg width="30" height="30" viewBox="0 0 30 30" fill="none" xmlns="http://www.w3.org/2000/svg">
<path fill-rule="evenodd" clip-rule="evenodd" d="M6.00012 24C5.44783 23.4477 5.44783 22.5523 6.00012 22L22 6.00011C22.5523 5.44783 23.4477 5.44783 24 6.00011C24.5523 6.55239 24.5523 7.44782 24 8.0001L8.0001 24C7.44782 24.5523 6.5524 24.5523 6.00012 24Z" fill="#311E1A"/>
<path fill-rule="evenodd" clip-rule="evenodd" d="M6.00012 6.00001C6.5524 5.44773 7.44782 5.44773 8.0001 6.00001L24 21.9999C24.5523 22.5522 24.5523 23.4476 24 23.9999C23.4477 24.5522 22.5523 24.5522 22 23.9999L6.00012 7.99999C5.44783 7.44771 5.44783 6.55229 6.00012 6.00001Z" fill="#311E1A"/>
</svg>
